<svg width="20" height="20" viewBox="0 0 20 20" fill="none" xmlns="http://www.w3.org/2000/svg">
<path fill-rule="evenodd" clip-rule="evenodd" d="M3.25 7C3.25 5.20979 3.96116 3.4929 5.22703 2.22703C6.4929 0.961159 8.20979 0.25 10 0.25C11.7902 0.25 13.5071 0.961159 14.773 2.22703C16.0388 3.4929 16.75 5.20979 16.75 7V7.75C16.75 9.873 17.55 11.807 18.868 13.27C18.9501 13.361 19.0087 13.4707 19.0385 13.5896C19.0684 13.7084 19.0687 13.8328 19.0394 13.9518C19.0101 14.0708 18.9521 14.1808 18.8704 14.2722C18.7888 14.3636 18.686 14.4335 18.571 14.476C17.027 15.046 15.411 15.466 13.74 15.719C13.7776 16.2331 13.7088 16.7495 13.5379 17.2359C13.367 17.7222 13.0977 18.1681 12.7467 18.5457C12.3957 18.9233 11.9707 19.2245 11.4981 19.4304C11.0255 19.6364 10.5155 19.7427 10 19.7427C9.48449 19.7427 8.97451 19.6364 8.50192 19.4304C8.02932 19.2245 7.60427 18.9233 7.2533 18.5457C6.90233 18.1681 6.63298 17.7222 6.46207 17.2359C6.29117 16.7495 6.22238 16.2331 6.26 15.719C4.61166 15.4692 2.99299 15.0524 1.429 14.475C1.31414 14.4326 1.2114 14.3627 1.12976 14.2715C1.04813 14.1802 0.99008 14.0703 0.960685 13.9515C0.931289 13.8326 0.931443 13.7084 0.961132 13.5896C0.990821 13.4708 1.04914 13.3611 1.131 13.27C2.49781 11.7567 3.25308 9.78919 3.25 7.75V7ZM7.752 15.9C7.73921 16.2032 7.78788 16.5058 7.89509 16.7897C8.00229 17.0736 8.16582 17.3329 8.37583 17.5519C8.58583 17.771 8.83798 17.9453 9.1171 18.0644C9.39622 18.1835 9.69654 18.2448 10 18.2448C10.3035 18.2448 10.6038 18.1835 10.8829 18.0644C11.162 17.9453 11.4142 17.771 11.6242 17.5519C11.8342 17.3329 11.9977 17.0736 12.1049 16.7897C12.2121 16.5058 12.2608 16.2032 12.248 15.9C10.7524 16.0347 9.24764 16.0347 7.752 15.9Z" fill="#646D89"/>
</svg>
