<svg width="14" height="13" viewBox="0 0 14 13" fill="none" xmlns="http://www.w3.org/2000/svg">
<path d="M12.5 7.93333V10.7667C12.5 11.496 11.9753 12.124 11.252 12.22C9.86067 12.4047 8.44134 12.5 7.00001 12.5C5.55867 12.5 4.13934 12.4047 2.74801 12.22C2.02467 12.124 1.50001 11.496 1.50001 10.7667V7.93333M12.5 7.93333C12.6583 7.79577 12.785 7.62557 12.8713 7.43442C12.9576 7.24328 13.0015 7.03572 13 6.826V4.304C13 3.58333 12.488 2.96067 11.7753 2.854C11.0202 2.74095 10.2613 2.65489 9.50001 2.596M12.5 7.93333C12.3707 8.04333 12.22 8.13 12.0513 8.18667C10.4222 8.72723 8.71653 9.00186 7.00001 9C5.23467 9 3.53667 8.714 1.94867 8.18667C1.78418 8.13195 1.63182 8.04592 1.50001 7.93333M1.50001 7.93333C1.3417 7.79577 1.21505 7.62557 1.12874 7.43442C1.04243 7.24328 0.998515 7.03572 1.00001 6.826V4.304C1.00001 3.58333 1.51201 2.96067 2.22467 2.854C2.9798 2.74094 3.73873 2.65489 4.50001 2.596M9.50001 2.596V2C9.50001 1.60218 9.34197 1.22064 9.06067 0.93934C8.77936 0.658035 8.39783 0.5 8.00001 0.5H6.00001C5.60218 0.5 5.22065 0.658035 4.93935 0.93934C4.65804 1.22064 4.50001 1.60218 4.50001 2V2.596M9.50001 2.596C7.83582 2.46739 6.16419 2.46739 4.50001 2.596M7.00001 7H7.00534V7.00533H7.00001V7Z" stroke="#C8CCDB" stroke-linecap="round" stroke-linejoin="round"/>
</svg>
