<svg width="29" height="24" viewBox="0 0 29 24" fill="none" xmlns="http://www.w3.org/2000/svg">
<path d="M1.5 20C8.61414 19.9942 15.6973 20.9363 22.5627 22.8013C23.532 23.0653 24.5 22.3453 24.5 21.34V20M3.5 1V2C3.5 2.26522 3.39464 2.51957 3.20711 2.70711C3.01957 2.89464 2.76522 3 2.5 3H1.5M1.5 3V2.5C1.5 1.672 2.172 1 3 1H25.5M1.5 3V15M25.5 1V2C25.5 2.552 25.948 3 26.5 3H27.5M25.5 1H26C26.828 1 27.5 1.672 27.5 2.5V15.5C27.5 16.328 26.828 17 26 17H25.5M27.5 15H26.5C26.2348 15 25.9804 15.1054 25.7929 15.2929C25.6054 15.4804 25.5 15.7348 25.5 16V17M25.5 17H3.5M3.5 17H3C2.60218 17 2.22064 16.842 1.93934 16.5607C1.65804 16.2794 1.5 15.8978 1.5 15.5V15M3.5 17V16C3.5 15.7348 3.39464 15.4804 3.20711 15.2929C3.01957 15.1054 2.76522 15 2.5 15H1.5M18.5 9C18.5 10.0609 18.0786 11.0783 17.3284 11.8284C16.5783 12.5786 15.5609 13 14.5 13C13.4391 13 12.4217 12.5786 11.6716 11.8284C10.9214 11.0783 10.5 10.0609 10.5 9C10.5 7.93913 10.9214 6.92172 11.6716 6.17157C12.4217 5.42143 13.4391 5 14.5 5C15.5609 5 16.5783 5.42143 17.3284 6.17157C18.0786 6.92172 18.5 7.93913 18.5 9V9ZM22.5 9H22.5107V9.01067H22.5V9ZM6.5 9H6.51067V9.01067H6.5V9Z" stroke="#9AA1B9" stroke-width="2" stroke-linecap="round" stroke-linejoin="round"/>
</svg>
