<svg width="12" height="11" viewBox="0 0 12 11" fill="none" xmlns="http://www.w3.org/2000/svg">
<path fill-rule="evenodd" clip-rule="evenodd" d="M0.5 5.00001C0.5 4.8674 0.552678 4.74022 0.646447 4.64646C0.740215 4.55269 0.867392 4.50001 1 4.50001H9.79333L6.14667 0.853343C6.05835 0.75856 6.01026 0.633195 6.01255 0.503661C6.01484 0.374127 6.06731 0.250537 6.15892 0.158928C6.25053 0.0673196 6.37412 0.0148451 6.50365 0.0125596C6.63319 0.0102741 6.75855 0.0583561 6.85333 0.146676L11.3533 4.64668C11.447 4.74043 11.4996 4.86751 11.4996 5.00001C11.4996 5.13251 11.447 5.25959 11.3533 5.35334L6.85333 9.85334C6.80756 9.90247 6.75236 9.94187 6.69103 9.9692C6.62969 9.99652 6.56348 10.0112 6.49635 10.0124C6.42921 10.0136 6.36253 10.0012 6.30027 9.97609C6.23801 9.95094 6.18145 9.91351 6.13398 9.86603C6.0865 9.81855 6.04907 9.762 6.02392 9.69974C5.99877 9.63748 5.98642 9.5708 5.98761 9.50366C5.98879 9.43653 6.00348 9.37032 6.03081 9.30898C6.05814 9.24765 6.09754 9.19245 6.14667 9.14668L9.79333 5.50001H1C0.867392 5.50001 0.740215 5.44733 0.646447 5.35356C0.552678 5.25979 0.5 5.13262 0.5 5.00001Z" fill="#ffffff"/>
</svg>
