<svg width="61" height="32" viewBox="0 0 61 32" fill="none" xmlns="http://www.w3.org/2000/svg">
<path fill-rule="evenodd" clip-rule="evenodd" d="M41 1.45455C41 1.06878 41.158 0.698807 41.4393 0.426027C41.7206 0.153247 42.1022 0 42.5 0H48.5C48.8978 0 49.2794 0.153247 49.5607 0.426027C49.842 0.698807 50 1.06878 50 1.45455V4.36364H54.5C54.8978 4.36364 55.2794 4.51688 55.5607 4.78966C55.842 5.06244 56 5.43241 56 5.81818V14.5455H60.5V17.4545H56V26.1818C56 26.5676 55.842 26.9376 55.5607 27.2103C55.2794 27.4831 54.8978 27.6364 54.5 27.6364H50V30.5455C50 30.9312 49.842 31.3012 49.5607 31.574C49.2794 31.8468 48.8978 32 48.5 32H42.5C42.1022 32 41.7206 31.8468 41.4393 31.574C41.158 31.3012 41 30.9312 41 30.5455V17.4545H20V30.5455C20 30.9312 19.842 31.3012 19.5607 31.574C19.2794 31.8468 18.8978 32 18.5 32H12.5C12.1022 32 11.7206 31.8468 11.4393 31.574C11.158 31.3012 11 30.9312 11 30.5455V27.6364H6.5C6.10218 27.6364 5.72064 27.4831 5.43934 27.2103C5.15804 26.9376 5 26.5676 5 26.1818V17.4545H0.5V14.5455H5V5.81818C5 5.43241 5.15804 5.06244 5.43934 4.78966C5.72064 4.51688 6.10218 4.36364 6.5 4.36364H11V1.45455C11 1.06878 11.158 0.698807 11.4393 0.426027C11.7206 0.153247 12.1022 0 12.5 0H18.5C18.8978 0 19.2794 0.153247 19.5607 0.426027C19.842 0.698807 20 1.06878 20 1.45455V14.5455H41V1.45455ZM14 29.0909H17V2.90909H14V29.0909ZM11 7.27273H8V24.7273H11V7.27273ZM50 24.7273V7.27273H53V24.7273H50ZM47 2.90909V29.0909H44V2.90909H47Z" fill="white"/>
</svg>
