<svg width="16" height="16" viewBox="0 0 16 16" fill="none" xmlns="http://www.w3.org/2000/svg">
<path d="M7.99997 0.0488281C10.0755 0.0488281 10.3344 0.056467 11.1487 0.0946614C11.9623 0.132856 12.5161 0.260425 13.0034 0.44987C13.5076 0.643898 13.9323 0.906675 14.3571 1.33063C14.7455 1.7125 15.0461 2.17442 15.2378 2.68424C15.4265 3.17084 15.5548 3.72542 15.593 4.53897C15.6289 5.35327 15.6389 5.61223 15.6389 7.68772C15.6389 9.7632 15.6312 10.0222 15.593 10.8365C15.5548 11.65 15.4265 12.2038 15.2378 12.6912C15.0466 13.2013 14.746 13.6633 14.3571 14.0448C13.9751 14.4331 13.5132 14.7336 13.0034 14.9256C12.5168 15.1142 11.9623 15.2426 11.1487 15.2808C10.3344 15.3167 10.0755 15.3266 7.99997 15.3266C5.92449 15.3266 5.66553 15.319 4.85122 15.2808C4.03768 15.2426 3.48386 15.1142 2.9965 14.9256C2.48647 14.7342 2.02447 14.4336 1.64289 14.0448C1.25438 13.663 0.953809 13.2011 0.762126 12.6912C0.572681 12.2046 0.445112 11.65 0.406917 10.8365C0.371014 10.0222 0.361084 9.7632 0.361084 7.68772C0.361084 5.61223 0.368723 5.35327 0.406917 4.53897C0.445112 3.72466 0.572681 3.17161 0.762126 2.68424C0.953278 2.1741 1.25392 1.71206 1.64289 1.33063C2.02458 0.941991 2.48655 0.641399 2.9965 0.44987C3.48386 0.260425 4.03692 0.132856 4.85122 0.0946614C5.66553 0.0587586 5.92449 0.0488281 7.99997 0.0488281ZM7.99997 3.86827C6.98699 3.86827 6.0155 4.27068 5.29922 4.98696C4.58293 5.70325 4.18053 6.67474 4.18053 7.68772C4.18053 8.7007 4.58293 9.67219 5.29922 10.3885C6.0155 11.1048 6.98699 11.5072 7.99997 11.5072C9.01295 11.5072 9.98444 11.1048 10.7007 10.3885C11.417 9.67219 11.8194 8.7007 11.8194 7.68772C11.8194 6.67474 11.417 5.70325 10.7007 4.98696C9.98444 4.27068 9.01295 3.86827 7.99997 3.86827ZM12.9653 3.6773C12.9653 3.42406 12.8647 3.18118 12.6856 3.00211C12.5065 2.82304 12.2636 2.72244 12.0104 2.72244C11.7571 2.72244 11.5143 2.82304 11.3352 3.00211C11.1561 3.18118 11.0555 3.42406 11.0555 3.6773C11.0555 3.93055 11.1561 4.17342 11.3352 4.35249C11.5143 4.53156 11.7571 4.63216 12.0104 4.63216C12.2636 4.63216 12.5065 4.53156 12.6856 4.35249C12.8647 4.17342 12.9653 3.93055 12.9653 3.6773ZM7.99997 5.39605C8.60776 5.39605 9.19066 5.63749 9.62043 6.06726C10.0502 6.49703 10.2916 7.07993 10.2916 7.68772C10.2916 8.2955 10.0502 8.8784 9.62043 9.30817C9.19066 9.73794 8.60776 9.97938 7.99997 9.97938C7.39219 9.97938 6.80929 9.73794 6.37952 9.30817C5.94975 8.8784 5.70831 8.2955 5.70831 7.68772C5.70831 7.07993 5.94975 6.49703 6.37952 6.06726C6.80929 5.63749 7.39219 5.39605 7.99997 5.39605Z" fill="white"/>
</svg>
