<svg width="14" height="18" viewBox="0 0 14 18" fill="none" xmlns="http://www.w3.org/2000/svg">
<path d="M9.5 7.43848C9.5 8.10152 9.23661 8.7374 8.76777 9.20624C8.29893 9.67508 7.66304 9.93848 7 9.93848C6.33696 9.93848 5.70107 9.67508 5.23223 9.20624C4.76339 8.7374 4.5 8.10152 4.5 7.43848C4.5 6.77544 4.76339 6.13955 5.23223 5.67071C5.70107 5.20187 6.33696 4.93848 7 4.93848C7.66304 4.93848 8.29893 5.20187 8.76777 5.67071C9.23661 6.13955 9.5 6.77544 9.5 7.43848V7.43848Z" stroke="#81A08F" stroke-width="1.5" stroke-linecap="round" stroke-linejoin="round"/>
<path d="M13.25 7.43848C13.25 13.3901 7 16.8135 7 16.8135C7 16.8135 0.75 13.3901 0.75 7.43848C0.75 5.78087 1.40848 4.19116 2.58058 3.01906C3.75268 1.84696 5.3424 1.18848 7 1.18848C8.6576 1.18848 10.2473 1.84696 11.4194 3.01906C12.5915 4.19116 13.25 5.78087 13.25 7.43848V7.43848Z" stroke="#81A08F" stroke-width="1.5" stroke-linecap="round" stroke-linejoin="round"/>
</svg>
