<svg width="180" height="49" viewBox="0 0 180 49" fill="none" xmlns="http://www.w3.org/2000/svg">
<path d="M27.0562 39.3167V38.953H29.129C29.5654 38.953 29.929 38.9046 30.22 38.8076C30.5351 38.6864 30.7655 38.4682 30.9109 38.153C31.0564 37.8136 31.1291 37.3408 31.1291 36.7347V15.7881C31.1291 15.2062 31.0564 14.7698 30.9109 14.4789C30.7897 14.188 30.5958 13.994 30.3291 13.897C30.0866 13.7758 29.7957 13.7152 29.4563 13.7152H27.0562V13.3516H37.3113L48.9847 32.2981V15.7881C48.9847 15.2547 48.912 14.8426 48.7665 14.5516C48.6453 14.2607 48.4634 14.0546 48.221 13.9334C47.9786 13.788 47.6876 13.7152 47.3482 13.7152H44.6572V13.3516H53.5668V13.7152H51.0212C50.6575 13.7152 50.3423 13.788 50.0757 13.9334C49.8332 14.0789 49.6514 14.3092 49.5302 14.6244C49.409 14.9395 49.3484 15.3759 49.3484 15.9335V39.3167H46.3664L31.4928 15.1698V36.7347C31.4928 37.3408 31.5413 37.8136 31.6382 38.153C31.7595 38.4682 31.9413 38.6864 32.1837 38.8076C32.4262 38.9046 32.7413 38.953 33.1292 38.953H35.8203V39.3167H27.0562Z" fill="#F1F5F3"/>
<path d="M54.579 39.3167V38.953H56.07C56.4095 38.953 56.7004 38.8924 56.9428 38.7712C57.1853 38.6257 57.3671 38.4076 57.4883 38.1166C57.6338 37.8257 57.7065 37.462 57.7065 37.0257V15.8244C57.7065 15.1941 57.6338 14.7335 57.4883 14.4425C57.3428 14.1516 57.1368 13.9577 56.8701 13.8607C56.6277 13.7637 56.3488 13.7152 56.0337 13.7152H54.579V13.3516H74.6893L74.9439 20.1883H74.5802L74.4711 19.0246C74.3499 17.7155 74.0832 16.673 73.6711 15.8972C73.2589 15.0971 72.6407 14.5395 71.8164 14.2243C71.0164 13.8849 69.9618 13.7152 68.6526 13.7152H64.5069V25.5705H72.8346V25.9341H64.5069V38.953H69.7799C71.1133 38.953 72.1801 38.7833 72.9801 38.4439C73.8044 38.1045 74.4226 37.5469 74.8348 36.7711C75.2469 35.9953 75.5015 34.9407 75.5984 33.6073L75.7075 32.4799H76.0712L75.8166 39.3167H54.579Z" fill="#F1F5F3"/>
<path d="M77.1545 39.3167V38.953H78.4637C78.9001 38.953 79.288 38.8924 79.6274 38.7712C79.9668 38.6257 80.2698 38.3712 80.5365 38.0075C80.8274 37.6196 81.082 37.0863 81.3002 36.4074L88.2097 13.3516H93.4464L101.01 36.5893C101.229 37.1469 101.459 37.6075 101.701 37.9712C101.944 38.3106 102.223 38.5651 102.538 38.7348C102.877 38.8803 103.241 38.953 103.629 38.953H103.811V39.3167H91.3735V38.953H92.9009C93.4342 38.953 93.7979 38.8439 93.9918 38.6257C94.1858 38.4076 94.2828 38.1166 94.2828 37.753C94.2828 37.5833 94.2585 37.4136 94.21 37.2438C94.1858 37.0499 94.1494 36.8438 94.1009 36.6256C94.0524 36.4074 94.004 36.2014 93.9555 36.0074L92.1372 29.7889H83.664L81.9911 35.3528C81.8942 35.6922 81.8093 36.0074 81.7366 36.2983C81.6638 36.5893 81.6032 36.8559 81.5548 37.0984C81.5063 37.3166 81.482 37.5348 81.482 37.753C81.482 38.1651 81.579 38.4682 81.7729 38.6621C81.9911 38.8561 82.3427 38.953 82.8275 38.953H85.2641V39.3167H77.1545ZM83.7731 29.4252H92.0281L89.4461 20.4065C89.3249 19.9701 89.1794 19.4489 89.0097 18.8428C88.84 18.2367 88.6703 17.6064 88.5006 16.9518C88.3309 16.2972 88.1612 15.6668 87.9915 15.0608C87.8945 15.4971 87.7854 15.9335 87.6642 16.3699C87.543 16.8063 87.4096 17.2548 87.2642 17.7155C87.143 18.1518 87.0096 18.5882 86.8642 19.0246C86.7429 19.461 86.6096 19.8974 86.4641 20.3338L83.7731 29.4252Z" fill="#F1F5F3"/>
<path d="M106.813 39.3167V38.953H107.904C108.389 38.953 108.777 38.8924 109.068 38.7712C109.383 38.65 109.613 38.4197 109.759 38.0803C109.929 37.7408 110.013 37.256 110.013 36.6256V13.7152H108.195C106.838 13.7152 105.747 13.8849 104.922 14.2243C104.098 14.5395 103.492 15.085 103.104 15.8608C102.716 16.6366 102.474 17.6912 102.377 19.0246L102.268 20.7338H101.904L102.158 13.3516H124.778L125.033 20.7338H124.669L124.523 19.0246C124.426 17.6912 124.184 16.6366 123.796 15.8608C123.408 15.085 122.802 14.5395 121.978 14.2243C121.154 13.8849 120.063 13.7152 118.705 13.7152H116.923V36.6984C116.923 37.3045 117.008 37.7772 117.178 38.1166C117.347 38.456 117.59 38.6864 117.905 38.8076C118.22 38.9046 118.596 38.953 119.032 38.953H120.123V39.3167H106.813Z" fill="#F1F5F3"/>
<path d="M125.819 39.3167V38.953H127.383C127.649 38.953 127.904 38.8924 128.146 38.7712C128.389 38.65 128.583 38.4439 128.728 38.153C128.874 37.8621 128.946 37.4742 128.946 36.9893V15.7517C128.946 15.2426 128.862 14.8426 128.692 14.5516C128.546 14.2365 128.34 14.0183 128.074 13.897C127.807 13.7758 127.516 13.7152 127.201 13.7152H125.819V13.3516H138.947V13.7152H137.492C137.08 13.7152 136.753 13.7758 136.51 13.897C136.292 14.0183 136.123 14.2243 136.001 14.5153C135.88 14.7819 135.82 15.1577 135.82 15.6426V38.953H139.856C141.48 38.953 142.778 38.747 143.747 38.3348C144.741 37.9227 145.481 37.2439 145.966 36.2983C146.45 35.3528 146.754 34.0679 146.875 32.4436L146.947 31.0617H147.311L147.02 39.3167H125.819Z" fill="#F1F5F3"/>
<path d="M151.79 39.3167V38.953H152.99C153.524 38.953 153.96 38.8924 154.3 38.7712C154.639 38.6257 154.894 38.3833 155.063 38.0439C155.257 37.6802 155.354 37.1711 155.354 36.5165V30.298L148.517 15.6426C148.323 15.1577 148.105 14.7819 147.863 14.5153C147.645 14.2243 147.402 14.0183 147.136 13.897C146.893 13.7758 146.614 13.7152 146.299 13.7152H146.19V13.3516H158.918V13.7152H158.482C157.536 13.7152 156.845 13.8243 156.409 14.0425C155.972 14.2607 155.754 14.6244 155.754 15.1335C155.754 15.4244 155.803 15.7396 155.9 16.079C156.021 16.4184 156.191 16.8306 156.409 17.3154L159.936 25.1704C160.154 25.5583 160.324 25.9099 160.445 26.225C160.591 26.516 160.724 26.819 160.845 27.1342C160.991 27.4493 161.161 27.813 161.355 28.2251C161.548 28.6373 161.791 29.1343 162.082 29.7161C162.203 29.3767 162.336 29.0252 162.482 28.6615C162.627 28.2736 162.785 27.8979 162.955 27.5342L167.1 17.4609C167.343 16.879 167.512 16.4063 167.609 16.0426C167.731 15.679 167.791 15.3638 167.791 15.0971C167.791 14.588 167.609 14.2365 167.246 14.0425C166.882 13.8243 166.312 13.7152 165.537 13.7152H163.9V13.3516H171.355V13.7152H170.955C170.543 13.7152 170.167 13.788 169.828 13.9334C169.488 14.0546 169.173 14.285 168.882 14.6244C168.616 14.9638 168.349 15.4487 168.082 16.079L162.264 30.1162V36.5529C162.264 37.2075 162.349 37.7045 162.518 38.0439C162.688 38.3833 162.918 38.6257 163.209 38.7712C163.5 38.8924 163.84 38.953 164.227 38.953H165.864V39.3167H151.79Z" fill="#F1F5F3"/>
<path fill-rule="evenodd" clip-rule="evenodd" d="M26.5366 39.8362V38.4335H29.129C29.5241 38.4335 29.8242 38.3899 30.044 38.3186C30.2215 38.2477 30.3475 38.1304 30.4362 37.9417C30.5402 37.695 30.6096 37.3048 30.6096 36.7347V15.788C30.6096 15.2327 30.5374 14.8936 30.4462 14.7112L30.4302 14.6792C30.358 14.5059 30.2657 14.4268 30.1515 14.3853L30.1234 14.3751L30.0967 14.3617C29.9423 14.2845 29.7349 14.2347 29.4563 14.2347H26.5366V12.832H37.6014L48.4652 30.4645V15.788C48.4652 15.2898 48.3952 14.9708 48.3018 14.7839L48.2858 14.7519C48.2043 14.5562 48.1018 14.4546 47.9887 14.3981L47.9708 14.3891L47.9537 14.3789C47.8068 14.2908 47.6124 14.2347 47.3482 14.2347H44.1376V12.832H75.1898L75.483 20.7078H74.1071L73.9538 19.0731C73.8361 17.8016 73.5802 16.8335 73.2122 16.1409L73.2092 16.1351C72.8543 15.4462 72.3332 14.9781 71.6308 14.7096L71.6134 14.7029C70.9015 14.4009 69.924 14.2347 68.6526 14.2347H65.0264V25.0509H73.3541V26.4536H65.0264V38.4335H69.7799C71.0771 38.4335 72.0663 38.2673 72.7772 37.9656L72.7823 37.9635C73.4965 37.6694 74.0215 37.1946 74.3759 36.5273C74.7412 35.8398 74.9861 34.8649 75.0803 33.5696L75.0812 33.5572L75.2359 31.9604H76.6104L76.3171 39.8362H54.0595V38.4335H56.07C56.3378 38.4335 56.5398 38.3875 56.6921 38.3154C56.8211 38.2334 56.9285 38.1094 57.0087 37.9168L57.0225 37.8837C57.1218 37.6852 57.187 37.4077 57.187 37.0256V15.8244C57.187 15.2127 57.1129 14.8534 57.0236 14.6748C56.9282 14.4841 56.8159 14.3938 56.6925 14.3489L56.677 14.3433C56.5072 14.2753 56.2961 14.2347 56.0337 14.2347H51.0212C50.7328 14.2347 50.5095 14.291 50.3343 14.3841C50.2129 14.4597 50.101 14.5874 50.015 14.8108C49.9268 15.0402 49.8678 15.4036 49.8678 15.9335V39.8362H46.0762L32.0123 17.0038V36.7347C32.0123 37.3057 32.0576 37.7158 32.1314 37.9876C32.2114 38.1854 32.3071 38.2825 32.3985 38.3336C32.5575 38.3927 32.794 38.4335 33.1292 38.4335H36.3398V39.8362H26.5366ZM32.1635 38.7972C31.9311 38.6741 31.756 38.4593 31.6382 38.153C31.6071 38.0439 31.5809 37.9211 31.5598 37.7845C31.5151 37.496 31.4928 37.1461 31.4928 36.7347V15.1698L46.3663 39.3167H49.3483V15.9335C49.3483 15.8841 49.3488 15.8356 49.3498 15.788C49.3562 15.4654 49.3846 15.1867 49.435 14.9518C49.4609 14.8311 49.4926 14.7219 49.5302 14.6243C49.6514 14.3092 49.8332 14.0789 50.0756 13.9334C50.1169 13.9109 50.1594 13.8901 50.203 13.8711C50.4411 13.7672 50.7138 13.7152 51.0212 13.7152H53.5668V13.3515H44.6571V13.7152H47.3482C47.6351 13.7152 47.8873 13.7672 48.1049 13.8711C48.1447 13.8901 48.1834 13.9109 48.221 13.9334C48.4634 14.0546 48.6453 14.2607 48.7665 14.5516C48.8241 14.6668 48.8703 14.8011 48.9051 14.9543C48.9581 15.188 48.9847 15.4659 48.9847 15.788V32.2981L37.3113 13.3515H27.0561V13.7152H29.4563C29.7705 13.7152 30.0432 13.7672 30.2743 13.8711C30.2928 13.8794 30.3111 13.888 30.329 13.897C30.5957 13.994 30.7897 14.188 30.9109 14.4789C30.9334 14.5239 30.9542 14.5725 30.9732 14.6245C31.0289 14.7765 31.0696 14.9583 31.0954 15.1698C31.1044 15.2434 31.1116 15.3205 31.117 15.4013C31.1205 15.4539 31.1233 15.5081 31.1252 15.5638C31.1278 15.6359 31.1291 15.7107 31.1291 15.788V36.7347C31.1291 37.1381 31.0969 37.4823 31.0325 37.7676C31.0001 37.911 30.9596 38.0394 30.9109 38.153C30.7695 38.4593 30.5479 38.6741 30.2462 38.7972C30.2375 38.8007 30.2288 38.8042 30.22 38.8076C29.929 38.9045 29.5654 38.953 29.129 38.953H27.0561V39.3167H35.8203V38.953H33.1292C32.7413 38.953 32.4261 38.9045 32.1837 38.8076C32.1769 38.8042 32.1702 38.8007 32.1635 38.7972ZM56.9428 38.7712C56.9248 38.7802 56.9066 38.7888 56.888 38.7972C56.6569 38.9011 56.3843 38.953 56.07 38.953H54.579V39.3167H75.8166L76.0712 32.4799H75.7075L75.5984 33.6073C75.5691 34.0107 75.5253 34.3886 75.4671 34.741C75.333 35.5533 75.1222 36.23 74.8347 36.7711C74.4226 37.5469 73.8044 38.1045 72.9801 38.4439C72.6227 38.5955 72.2121 38.7133 71.7482 38.7972C71.1738 38.9011 70.5177 38.953 69.7799 38.953H64.5069V25.9341H72.8346V25.5704H64.5069V13.7152H68.6526C69.3769 13.7152 70.0233 13.7671 70.5918 13.8711C71.0508 13.9549 71.459 14.0727 71.8164 14.2243C72.6407 14.5395 73.2589 15.0971 73.671 15.8971C73.9739 16.4672 74.1982 17.1813 74.3439 18.0393C74.3966 18.349 74.4389 18.6774 74.4711 19.0246L74.5802 20.1883H74.9438L74.899 18.985L74.6893 13.3515H54.579V13.7152H56.0337C56.3488 13.7152 56.6276 13.7637 56.8701 13.8607C56.8793 13.864 56.8884 13.8675 56.8975 13.8711C57.1509 13.9711 57.3478 14.1616 57.4883 14.4425C57.6337 14.7334 57.7065 15.1941 57.7065 15.8244V37.0256C57.7065 37.462 57.6337 37.8257 57.4883 38.1166C57.3671 38.4075 57.1852 38.6257 56.9428 38.7712ZM76.635 39.8362V38.4335H78.4636C78.8452 38.4335 79.1672 38.3815 79.437 38.2875C79.6691 38.1846 79.8982 37.9994 80.1176 37.7003L80.1209 37.6958C80.3644 37.3711 80.5964 36.898 80.8041 36.2531L87.823 12.832H93.8236L101.5 36.4139C101.706 36.9382 101.917 37.356 102.129 37.6759C102.326 37.9497 102.539 38.1409 102.764 38.2665C103.03 38.3768 103.316 38.4335 103.629 38.4335H104.33V39.8362H90.854V38.4335H92.9008C93.3991 38.4335 93.5643 38.3247 93.6035 38.2806C93.6936 38.1792 93.7632 38.0219 93.7632 37.7529C93.7632 37.6334 93.7462 37.5117 93.7105 37.3866L93.6995 37.348L93.6945 37.3083C93.6725 37.1326 93.6392 36.9428 93.5938 36.7383C93.547 36.5278 93.5003 36.3294 93.4539 36.1432L91.7478 30.3084H84.0502L82.4906 35.4955C82.4903 35.4967 82.49 35.4978 82.4897 35.4989C82.3944 35.8324 82.3114 36.1408 82.2406 36.4243C82.1694 36.7089 82.1107 36.9674 82.0641 37.2003L82.062 37.2111C82.0215 37.3932 82.0015 37.5736 82.0015 37.7529C82.0015 38.0757 82.074 38.2205 82.13 38.2839C82.2149 38.3512 82.4125 38.4335 82.8275 38.4335H85.7835V39.8362H76.635ZM81.7729 38.6621C81.579 38.4681 81.482 38.1651 81.482 37.7529C81.482 37.6094 81.4925 37.4658 81.5135 37.3222C81.5244 37.2476 81.5381 37.173 81.5547 37.0984C81.5901 36.9216 81.6319 36.732 81.6801 36.5295C81.6807 36.527 81.6813 36.5244 81.6819 36.5218C81.6993 36.449 81.7175 36.3745 81.7366 36.2983C81.8093 36.0074 81.8941 35.6922 81.9911 35.3528L83.6639 29.7889H92.1372L93.9554 36.0074C94.0039 36.2013 94.0524 36.4074 94.1009 36.6256C94.1494 36.8438 94.1858 37.0499 94.21 37.2438C94.2585 37.4135 94.2827 37.5832 94.2827 37.7529C94.2827 38.1166 94.1858 38.4075 93.9918 38.6257C93.9317 38.6934 93.8553 38.7505 93.7626 38.7972C93.5561 38.9011 93.2689 38.953 92.9008 38.953H91.3735V39.3167H103.811V38.953H103.629C103.301 38.953 102.99 38.9011 102.697 38.7972C102.643 38.7781 102.59 38.7573 102.538 38.7348C102.223 38.5651 101.944 38.3106 101.701 37.9711C101.459 37.6075 101.229 37.1469 101.01 36.5892L93.4463 13.3515H88.2097L81.3002 36.4074C81.2328 36.617 81.162 36.8127 81.0877 36.9946C81.0864 36.9978 81.0851 37.001 81.0837 37.0042C81.0598 37.0626 81.0354 37.1196 81.0107 37.1752C80.8651 37.5026 80.7071 37.7801 80.5365 38.0075C80.2698 38.3712 79.9668 38.6257 79.6273 38.7712C79.6022 38.7802 79.5767 38.7888 79.551 38.7972C79.2301 38.9011 78.8677 38.953 78.4636 38.953H77.1545V39.3167H85.264V38.953H82.8275C82.4726 38.953 82.1892 38.9011 81.9771 38.7972C81.8995 38.7591 81.8314 38.7141 81.7729 38.6621ZM92.0281 29.4252L89.4461 20.4065C89.3249 19.9701 89.1794 19.4489 89.0097 18.8428C88.84 18.2367 88.6703 17.6063 88.5006 16.9518C88.4255 16.6623 88.3505 16.3776 88.2755 16.0976C88.2206 15.8929 88.1657 15.6907 88.1108 15.491C88.071 15.3463 88.0313 15.2028 87.9915 15.0607C87.9146 15.4068 87.83 15.7529 87.7379 16.099C87.7138 16.1893 87.6893 16.2796 87.6642 16.3699C87.543 16.8063 87.4096 17.2548 87.2641 17.7154C87.1429 18.1518 87.0096 18.5882 86.8641 19.0246C86.7429 19.461 86.6096 19.8974 86.4641 20.3338L83.773 29.4252H92.0281ZM84.4686 28.9057H91.339L88.9455 20.5455C88.8244 20.1096 88.6791 19.5887 88.5094 18.9828C88.3392 18.3749 88.1691 17.7431 87.9991 17.0875C87.924 17.3424 87.845 17.601 87.7622 17.8633C87.6404 18.3012 87.5067 18.7389 87.3611 19.1764C87.2393 19.6143 87.1055 20.0521 86.9598 20.4896L84.4686 28.9057ZM106.294 39.8362V38.4335H107.904C108.354 38.4335 108.665 38.3762 108.868 38.2916L108.881 38.2861C109.053 38.2202 109.185 38.0995 109.281 37.8756L109.293 37.8475C109.411 37.6129 109.494 37.2221 109.494 36.6256V14.2347H108.195C106.873 14.2347 105.858 14.401 105.12 14.7047L105.108 14.7097C104.403 14.9794 103.897 15.4358 103.569 16.0931C103.223 16.784 102.989 17.7627 102.895 19.0601C102.895 19.0609 102.895 19.0594 102.895 19.0601L102.755 21.2533H101.366L101.657 12.832H125.28L125.299 13.3992V12.832H139.466V14.2347H137.492C137.132 14.2347 136.897 14.2877 136.754 14.3564C136.664 14.409 136.566 14.5103 136.481 14.7151L136.475 14.7303C136.398 14.8993 136.339 15.1894 136.339 15.6426V38.4335H139.856C141.445 38.4335 142.664 38.2308 143.544 37.8567L143.548 37.8549C144.43 37.4893 145.075 36.8957 145.503 36.0613C145.944 35.2025 146.237 33.996 146.356 32.4106C146.356 32.4087 146.356 32.4068 146.357 32.4049L146.455 30.5421H147.849L147.522 39.8362H125.299V38.4335H127.383C127.567 38.4335 127.742 38.3923 127.914 38.3065C128.037 38.245 128.158 38.1317 128.264 37.9206C128.36 37.7285 128.427 37.4298 128.427 36.9893V15.7517C128.427 15.2911 128.349 14.9942 128.243 14.8134L128.231 14.7919L128.22 14.7693C128.117 14.5453 127.992 14.4304 127.859 14.37C127.664 14.2817 127.448 14.2347 127.201 14.2347H125.328L125.57 21.2533H124.192L124.005 19.0623C123.911 17.7638 123.677 16.7844 123.331 16.0931C123.003 15.4358 122.497 14.9792 121.792 14.7096L121.78 14.7049C121.042 14.4012 120.027 14.2347 118.705 14.2347H117.442V36.6983C117.442 37.2668 117.524 37.6475 117.642 37.8843C117.758 38.1163 117.904 38.2462 118.076 38.3165C118.326 38.3909 118.641 38.4335 119.032 38.4335H120.643V39.8362H106.294ZM117.879 38.7972C117.576 38.6734 117.342 38.4466 117.178 38.1166C117.008 37.7772 116.923 37.3044 116.923 36.6983V13.7152H118.705C119.456 13.7152 120.126 13.7671 120.713 13.8711C121.188 13.9549 121.61 14.0727 121.978 14.2243C122.802 14.5395 123.408 15.085 123.796 15.8608C124.085 16.438 124.293 17.1696 124.42 18.0556C124.464 18.3603 124.499 18.6833 124.523 19.0246L124.669 20.7338H125.033L124.778 13.3515H102.158L101.904 20.7338H102.268L102.377 19.0246C102.41 18.5707 102.46 18.149 102.526 17.7597C102.656 17.0054 102.848 16.3725 103.104 15.8608C103.492 15.085 104.098 14.5395 104.922 14.2243C105.29 14.0727 105.712 13.9549 106.187 13.8711C106.774 13.7671 107.444 13.7152 108.195 13.7152H110.013V36.6256C110.013 37.256 109.929 37.7408 109.759 38.0802C109.613 38.4197 109.383 38.65 109.068 38.7712C109.046 38.7802 109.024 38.7888 109.002 38.7972C108.719 38.9011 108.353 38.953 107.904 38.953H106.813V39.3167H120.123V38.953H119.032C118.596 38.953 118.22 38.9045 117.905 38.8076C117.896 38.8042 117.887 38.8007 117.879 38.7972ZM146.688 33.9804C146.527 34.9011 146.286 35.6738 145.966 36.2983C145.481 37.2438 144.741 37.9227 143.747 38.3348C143.264 38.54 142.7 38.6941 142.055 38.7972C141.405 38.9011 140.672 38.953 139.856 38.953H135.82V15.6426C135.82 15.1577 135.88 14.7819 136.001 14.5152C136.123 14.2243 136.292 14.0182 136.51 13.897C136.528 13.888 136.547 13.8794 136.566 13.8711C136.802 13.7672 137.111 13.7152 137.492 13.7152H138.947V13.3515H125.819V13.7152H127.201C127.493 13.7152 127.764 13.7672 128.014 13.8711C128.034 13.8794 128.054 13.888 128.074 13.897C128.34 14.0182 128.546 14.2364 128.692 14.5516C128.862 14.8425 128.946 15.2426 128.946 15.7517V36.9893C128.946 37.4741 128.874 37.862 128.728 38.153C128.583 38.4439 128.389 38.65 128.146 38.7712C128.128 38.7802 128.11 38.7888 128.092 38.7972C127.866 38.9011 127.63 38.953 127.383 38.953H125.819V39.3167H147.02L147.311 31.0617H146.947L146.875 32.4436C146.834 32.9949 146.771 33.5072 146.688 33.9804ZM151.271 39.8362V38.4335H152.99C153.48 38.4335 153.847 38.3782 154.109 38.2874C154.325 38.1914 154.485 38.0394 154.599 37.8115L154.605 37.7993C154.742 37.5426 154.835 37.1309 154.835 36.5165V30.4132L148.034 15.8358C147.854 15.3849 147.665 15.0698 147.478 14.8647L147.462 14.8466L147.447 14.827C147.269 14.5892 147.091 14.4474 146.921 14.37L146.903 14.362C146.744 14.2823 146.547 14.2347 146.299 14.2347H145.67V12.832H159.438V14.2347H158.482C157.555 14.2347 156.965 14.3451 156.641 14.5072C156.498 14.5789 156.414 14.6612 156.363 14.7462C156.312 14.8324 156.274 14.9541 156.274 15.1335C156.274 15.363 156.311 15.6243 156.395 15.9203C156.509 16.2393 156.671 16.6326 156.883 17.1022L160.401 24.9364C160.617 25.3228 160.792 25.6827 160.921 26.0149C161.068 26.3096 161.202 26.6152 161.324 26.9316C161.467 27.2418 161.634 27.5992 161.825 28.0039C161.885 28.1321 161.95 28.2687 162.02 28.4139C162.162 28.0406 162.315 27.6778 162.479 27.3254L166.62 17.2632C166.858 16.6905 167.019 16.24 167.107 15.9087L167.116 15.878C167.226 15.5462 167.272 15.2893 167.272 15.0971C167.272 14.7262 167.153 14.5818 167.001 14.5009L166.978 14.4885C166.738 14.3443 166.285 14.2347 165.537 14.2347H163.381V12.832H171.875V14.2347H170.955C170.605 14.2347 170.3 14.2962 170.032 14.4109L170.003 14.4236C169.769 14.5071 169.528 14.672 169.284 14.954C169.059 15.2422 168.816 15.6769 168.561 16.2793C168.561 16.28 168.562 16.2786 168.561 16.2793L162.783 30.2196V36.5529C162.783 37.1774 162.867 37.5789 162.983 37.8115C163.107 38.0603 163.258 38.2104 163.426 38.2987C163.638 38.3839 163.902 38.4335 164.227 38.4335H166.383V39.8362H151.271ZM163.209 38.7712C162.918 38.6257 162.688 38.3833 162.518 38.0439C162.348 37.7045 162.264 37.2075 162.264 36.5529V30.1161L167.449 17.6062L168.082 16.079C168.133 15.9588 168.184 15.844 168.235 15.7344C168.451 15.2691 168.666 14.8991 168.882 14.6243C169.173 14.2849 169.488 14.0546 169.828 13.9334C169.88 13.9109 169.934 13.8901 169.988 13.8711C170.284 13.7672 170.607 13.7152 170.955 13.7152H171.355V13.3515H163.9V13.7152H165.537C166.072 13.7152 166.509 13.7671 166.848 13.8711C167.001 13.9177 167.133 13.9749 167.246 14.0425C167.609 14.2364 167.791 14.588 167.791 15.0971C167.791 15.2406 167.774 15.398 167.739 15.5696C167.717 15.6739 167.689 15.7835 167.655 15.8983C167.655 15.8994 167.654 15.9005 167.654 15.9015C167.64 15.9477 167.625 15.9947 167.609 16.0426C167.512 16.4063 167.343 16.879 167.1 17.4609L162.955 27.5342C162.785 27.8978 162.627 28.2736 162.482 28.6615C162.43 28.792 162.379 28.9209 162.33 29.0483C162.242 29.2759 162.16 29.4985 162.082 29.7161C162.042 29.6361 162.003 29.5577 161.965 29.4809C161.895 29.3402 161.828 29.2048 161.764 29.0748C161.609 28.7599 161.473 28.4767 161.354 28.2251C161.161 27.813 160.991 27.4493 160.845 27.1342C160.724 26.819 160.591 26.5159 160.445 26.225C160.324 25.9098 160.154 25.5583 159.936 25.1704L156.409 17.3154C156.191 16.8305 156.021 16.4184 155.9 16.079C155.803 15.7396 155.754 15.4244 155.754 15.1335C155.754 14.6243 155.972 14.2607 156.409 14.0425C156.544 13.9749 156.704 13.9177 156.888 13.8711C157.298 13.7672 157.829 13.7152 158.482 13.7152H158.918V13.3515H146.19V13.7152H146.299C146.591 13.7152 146.851 13.7672 147.081 13.8711C147.099 13.8794 147.118 13.888 147.135 13.897C147.402 14.0182 147.645 14.2243 147.863 14.5152C148.105 14.7819 148.323 15.1577 148.517 15.6426L155.354 30.298V36.5165C155.354 37.1711 155.257 37.6802 155.063 38.0439C154.894 38.3833 154.639 38.6257 154.3 38.7712C154.274 38.7802 154.249 38.7888 154.222 38.7972C153.895 38.9011 153.484 38.953 152.99 38.953H151.79V39.3167H165.864V38.953H164.227C163.868 38.953 163.551 38.9011 163.275 38.7972C163.253 38.7888 163.231 38.7802 163.209 38.7712Z" fill="#F1F5F3"/>
<path d="M18.9653 12.6453C18.2007 12.4099 14.2897 11.115 14.0014 10.9973C13.8636 10.945 13.7633 10.6834 13.7131 10.2388C13.2995 6.91669 12.6476 3.50302 12.3593 3.12373C12.1462 2.83599 11.4192 2.92755 11.2186 3.25452C11.0181 3.5815 10.0905 6.89051 9.53893 9.29704L9.17543 10.8665C2.05549 13.2207 1.66688 13.1684 4.8884 14.2017L7.73389 15.1172C9.35092 15.6404 9.38851 15.6534 9.47626 16.0719C9.60161 16.6736 10.4164 19.6033 10.7298 21.0027C11.3941 24.0109 12.7479 22.1537 13.9388 16.5559L14.2145 15.2742C14.365 15.248 15.3176 15.1565 19.4291 14.2279C20.3692 14.0055 20.0935 12.9853 18.9653 12.6453ZM17.1853 13.2861C17.0851 13.3777 14.3399 14.0709 13.8009 14.0709C13.149 14.0709 12.9986 14.3979 12.259 17.4714C11.7702 19.4987 11.7326 19.5379 11.4568 18.3608C11.1184 16.8828 10.4289 15.1565 10.3412 14.751C10.266 14.3848 9.564 14.1232 6.84389 13.4431C5.47756 13.1031 5.26447 12.9853 5.7784 12.8284C6.41769 12.6322 9.48878 11.5859 9.83976 11.5859C10.1782 11.5859 10.4665 11.3243 10.5668 10.9319L11.5445 6.95592C11.72 6.26273 11.72 6.26272 12.2089 8.97007C12.773 12.0175 12.7103 11.8867 13.6128 12.0828C14.741 12.3313 17.2982 13.1815 17.1853 13.2861Z" fill="#E76B39"/>
<path d="M17.1853 13.2861C17.0851 13.3777 14.3399 14.0709 13.8009 14.0709C13.149 14.0709 12.9986 14.3979 12.259 17.4714C11.7702 19.4987 11.7326 19.5379 11.4568 18.3608C11.1184 16.8828 10.4289 15.1565 10.3412 14.751C10.266 14.3848 9.564 14.1232 6.84389 13.4431C5.47756 13.1031 5.26447 12.9853 5.7784 12.8284C6.41769 12.6322 9.48878 11.5859 9.83976 11.5859C10.1782 11.5859 10.4665 11.3243 10.5668 10.9319L11.5445 6.95592C11.72 6.26273 11.72 6.26272 12.2089 8.97007C12.773 12.0175 12.7103 11.8867 13.6128 12.0828C14.741 12.3313 17.2982 13.1815 17.1853 13.2861Z" fill="#E76B39"/>
</svg>
