<svg width="94" height="25" viewBox="0 0 94 25" fill="none" xmlns="http://www.w3.org/2000/svg">
<path d="M14.1294 20.1877V20.001H15.2119C15.4398 20.001 15.6297 19.9761 15.7816 19.9263C15.9462 19.8641 16.0665 19.752 16.1424 19.5902C16.2184 19.4159 16.2564 19.1732 16.2564 18.862V8.10654C16.2564 7.80777 16.2184 7.5837 16.1424 7.43432C16.0791 7.28494 15.9779 7.18535 15.8386 7.13556C15.712 7.07332 15.56 7.04219 15.3828 7.04219H14.1294V6.85547H19.4849L25.581 16.5839V8.10654C25.581 7.83267 25.543 7.62105 25.467 7.47167C25.4037 7.32229 25.3088 7.21647 25.1822 7.15423C25.0555 7.07954 24.9036 7.04219 24.7264 7.04219H23.321V6.85547H27.9738V7.04219H26.6445C26.4546 7.04219 26.29 7.07954 26.1507 7.15423C26.0241 7.22892 25.9291 7.34718 25.8658 7.50901C25.8025 7.67084 25.7709 7.89491 25.7709 8.18123V20.1877H24.2136L16.4463 7.7891V18.862C16.4463 19.1732 16.4716 19.4159 16.5223 19.5902C16.5856 19.752 16.6805 19.8641 16.8071 19.9263C16.9337 19.9761 17.0983 20.001 17.3009 20.001H18.7062V20.1877H14.1294Z" fill="#465C50"/>
<path d="M28.5025 20.1877V20.001H29.2811C29.4583 20.001 29.6103 19.9699 29.7369 19.9076C29.8635 19.833 29.9584 19.7209 30.0217 19.5715C30.0977 19.4222 30.1357 19.2354 30.1357 19.0114V8.12521C30.1357 7.80155 30.0977 7.56503 30.0217 7.41565C29.9458 7.26627 29.8382 7.16668 29.6989 7.11689C29.5723 7.06709 29.4267 7.04219 29.2621 7.04219H28.5025V6.85547H39.0045L39.1374 10.3659H38.9475L38.8905 9.7684C38.8272 9.09619 38.688 8.5609 38.4727 8.16255C38.2575 7.75176 37.9347 7.46544 37.5042 7.30361C37.0864 7.12933 36.5357 7.04219 35.852 7.04219H33.687V13.1295H38.0359V13.3162H33.687V20.001H36.4407C37.137 20.001 37.6941 19.9139 38.1119 19.7396C38.5424 19.5653 38.8652 19.279 39.0804 18.8807C39.2957 18.4823 39.4286 17.9408 39.4793 17.2561L39.5362 16.6773H39.7261L39.5932 20.1877H28.5025Z" fill="#465C50"/>
<path d="M40.2919 20.1877V20.001H40.9755C41.2034 20.001 41.406 19.9699 41.5833 19.9076C41.7605 19.833 41.9188 19.7022 42.058 19.5155C42.21 19.3163 42.3429 19.0425 42.4568 18.6939L46.0651 6.85547H48.7998L52.75 18.7873C52.8639 19.0736 52.9842 19.3101 53.1108 19.4968C53.2374 19.6711 53.383 19.8018 53.5476 19.889C53.7248 19.9637 53.9147 20.001 54.1173 20.001H54.2123V20.1877H47.7173V20.001H48.515C48.7935 20.001 48.9834 19.945 49.0847 19.833C49.186 19.7209 49.2366 19.5715 49.2366 19.3848C49.2366 19.2977 49.224 19.2105 49.1986 19.1234C49.186 19.0238 49.167 18.918 49.1417 18.806C49.1163 18.6939 49.091 18.5881 49.0657 18.4885L48.1162 15.2955H43.6913L42.8177 18.1524C42.767 18.3267 42.7227 18.4885 42.6847 18.6379C42.6467 18.7873 42.6151 18.9242 42.5898 19.0487C42.5645 19.1607 42.5518 19.2728 42.5518 19.3848C42.5518 19.5964 42.6024 19.752 42.7037 19.8516C42.8177 19.9512 43.0012 20.001 43.2545 20.001H44.5269V20.1877H40.2919ZM43.7482 15.1088H48.0592L46.7108 10.478C46.6475 10.2539 46.5716 9.98625 46.4829 9.67504C46.3943 9.36383 46.3057 9.04017 46.2171 8.70406C46.1284 8.36795 46.0398 8.04429 45.9512 7.73308C45.9005 7.95715 45.8436 8.18123 45.7803 8.4053C45.717 8.62937 45.6473 8.85967 45.5714 9.09619C45.5081 9.32026 45.4384 9.54433 45.3625 9.7684C45.2992 9.99247 45.2295 10.2165 45.1536 10.4406L43.7482 15.1088Z" fill="#465C50"/>
<path d="M55.7804 20.1877V20.001H56.3501C56.6033 20.001 56.8059 19.9699 56.9578 19.9076C57.1224 19.8454 57.2427 19.7271 57.3186 19.5529C57.4073 19.3786 57.4516 19.1296 57.4516 18.806V7.04219H56.502C55.793 7.04219 55.2233 7.12933 54.7928 7.30361C54.3624 7.46544 54.0458 7.74553 53.8433 8.14388C53.6407 8.54223 53.5141 9.08374 53.4635 9.7684L53.4065 10.646H53.2166L53.3495 6.85547H65.1619L65.2948 10.646H65.1049L65.029 9.7684C64.9783 9.08374 64.8517 8.54223 64.6492 8.14388C64.4466 7.74553 64.1301 7.46544 63.6996 7.30361C63.2691 7.12933 62.6994 7.04219 61.9904 7.04219H61.0599V18.8433C61.0599 19.1545 61.1042 19.3973 61.1928 19.5715C61.2814 19.7458 61.408 19.8641 61.5726 19.9263C61.7372 19.9761 61.9334 20.001 62.1613 20.001H62.7311V20.1877H55.7804Z" fill="#465C50"/>
<path d="M65.7055 20.1877V20.001H66.5221C66.6614 20.001 66.7943 19.9699 66.9209 19.9076C67.0476 19.8454 67.1488 19.7396 67.2248 19.5902C67.3008 19.4408 67.3388 19.2417 67.3388 18.9927V8.08786C67.3388 7.82645 67.2944 7.62105 67.2058 7.47167C67.1299 7.30984 67.0222 7.1978 66.883 7.13556C66.7437 7.07332 66.5918 7.04219 66.4272 7.04219H65.7055V6.85547H72.5613V7.04219H71.8016C71.5864 7.04219 71.4155 7.07332 71.2889 7.13556C71.1749 7.1978 71.0863 7.30361 71.023 7.45299C70.9597 7.58993 70.9281 7.78288 70.9281 8.03185V20.001H73.0361C73.8843 20.001 74.5617 19.8952 75.0681 19.6836C75.5872 19.4719 75.9733 19.1234 76.2265 18.6379C76.4798 18.1524 76.638 17.4927 76.7013 16.6586L76.7393 15.949H76.9292L76.7773 20.1877H65.7055Z" fill="#465C50"/>
<path d="M79.2684 20.1877V20.001H79.8951C80.1736 20.001 80.4015 19.9699 80.5787 19.9076C80.756 19.833 80.8889 19.7085 80.9776 19.5342C81.0788 19.3475 81.1295 19.0861 81.1295 18.7499V15.5569L77.5592 8.03185C77.4579 7.78288 77.3439 7.58993 77.2173 7.45299C77.1034 7.30361 76.9768 7.1978 76.8375 7.13556C76.7109 7.07332 76.5653 7.04219 76.4007 7.04219H76.3438V6.85547H82.9906V7.04219H82.7627C82.2689 7.04219 81.9081 7.09821 81.6802 7.21025C81.4523 7.32229 81.3384 7.50901 81.3384 7.77043C81.3384 7.91981 81.3637 8.08164 81.4143 8.25592C81.4776 8.4302 81.5663 8.64182 81.6802 8.89079L83.5223 12.9241C83.6363 13.1233 83.7249 13.3038 83.7882 13.4656C83.8642 13.615 83.9338 13.7706 83.9971 13.9324C84.0731 14.0942 84.1617 14.281 84.263 14.4926C84.3643 14.7042 84.4909 14.9594 84.6428 15.2582C84.7061 15.0839 84.7757 14.9034 84.8517 14.7167C84.9277 14.5175 85.01 14.3245 85.0986 14.1378L87.2636 8.96548C87.3902 8.66672 87.4788 8.42397 87.5294 8.23724C87.5928 8.05052 87.6244 7.88869 87.6244 7.75176C87.6244 7.49034 87.5294 7.30984 87.3395 7.21025C87.1496 7.09821 86.8521 7.04219 86.447 7.04219H85.5924V6.85547H89.4855V7.04219H89.2766C89.0614 7.04219 88.8652 7.07954 88.6879 7.15423C88.5107 7.21647 88.3461 7.33473 88.1941 7.50901C88.0549 7.68329 87.9156 7.93226 87.7763 8.25592L84.7378 15.4636V18.7686C84.7378 19.1047 84.7821 19.3599 84.8707 19.5342C84.9593 19.7085 85.0796 19.833 85.2315 19.9076C85.3835 19.9699 85.5607 20.001 85.7633 20.001H86.6179V20.1877H79.2684Z" fill="#465C50"/>
<path fill-rule="evenodd" clip-rule="evenodd" d="M13.8579 20.4546V19.7344H15.2117C15.418 19.7344 15.5748 19.712 15.6895 19.6754C15.7822 19.639 15.8481 19.5788 15.8944 19.4819C15.9487 19.3552 15.9849 19.1548 15.9849 18.8621V8.10669C15.9849 7.82155 15.9472 7.64741 15.8996 7.55377L15.8912 7.53731C15.8535 7.44835 15.8053 7.40772 15.7457 7.3864L15.731 7.38116L15.7171 7.3743C15.6364 7.33465 15.5281 7.3091 15.3826 7.3091H13.8579V6.58887H19.6362L25.3095 15.6426V8.10669C25.3095 7.85083 25.273 7.68704 25.2242 7.59111L25.2158 7.57466C25.1732 7.4742 25.1197 7.42201 25.0606 7.39297L25.0513 7.38839L25.0424 7.38312C24.9657 7.33788 24.8642 7.3091 24.7262 7.3091H23.0496V6.58887H39.2657L39.4188 10.6328H38.7003L38.6202 9.79345C38.5588 9.14058 38.4251 8.6435 38.233 8.28785L38.2313 8.28487C38.046 7.93115 37.7739 7.69081 37.4071 7.55292L37.398 7.54949C37.0262 7.39442 36.5157 7.3091 35.8518 7.3091H33.9581V12.8629H38.3071V13.5831H33.9581V19.7344H36.4405C37.1179 19.7344 37.6345 19.649 38.0058 19.4942L38.0084 19.4931C38.3814 19.3421 38.6556 19.0983 38.8407 18.7557C39.0314 18.4026 39.1593 17.902 39.2085 17.2369L39.209 17.2306L39.2897 16.4107H40.0075L39.8544 20.4546H28.231V19.7344H29.2809C29.4207 19.7344 29.5262 19.7108 29.6058 19.6738C29.6732 19.6317 29.7292 19.568 29.7711 19.4691L29.7783 19.4521C29.8301 19.3502 29.8642 19.2077 29.8642 19.0115V8.12536C29.8642 7.81127 29.8255 7.62679 29.7789 7.53509C29.7291 7.43715 29.6704 7.39077 29.606 7.36773L29.5979 7.36483C29.5092 7.32996 29.399 7.3091 29.2619 7.3091H26.6443C26.4937 7.3091 26.3771 7.33798 26.2856 7.38583C26.2222 7.42462 26.1637 7.49018 26.1189 7.60492C26.0728 7.7227 26.042 7.9093 26.042 8.18138V20.4546H24.0619L16.7174 8.73094V18.8621C16.7174 19.1553 16.7411 19.3659 16.7796 19.5055C16.8214 19.607 16.8714 19.6569 16.9191 19.6831C17.0022 19.7134 17.1257 19.7344 17.3007 19.7344H18.9773V20.4546H13.8579ZM16.7964 19.9211C16.6751 19.8579 16.5836 19.7477 16.5221 19.5904C16.5058 19.5344 16.4921 19.4713 16.4811 19.4012C16.4578 19.253 16.4461 19.0734 16.4461 18.8621V7.78925L24.2134 20.1879H25.7707V8.18138C25.7707 8.15599 25.7709 8.13109 25.7714 8.10669C25.7748 7.94102 25.7897 7.7979 25.816 7.67732C25.8295 7.6153 25.8461 7.55925 25.8656 7.50916C25.9289 7.34733 26.0239 7.22907 26.1505 7.15438C26.1721 7.14282 26.1942 7.13215 26.217 7.12237C26.3414 7.06902 26.4838 7.04235 26.6443 7.04235H27.9736V6.85562H23.3209V7.04235H24.7262C24.876 7.04235 25.0077 7.06902 25.1213 7.12237C25.1422 7.13215 25.1624 7.14282 25.182 7.15438C25.3086 7.21662 25.4035 7.32244 25.4668 7.47182C25.4969 7.53098 25.521 7.5999 25.5392 7.67859C25.5669 7.79859 25.5808 7.94129 25.5808 8.10669V16.5841L19.4847 6.85562H14.1292V7.04235H15.3826C15.5467 7.04235 15.6891 7.06902 15.8098 7.12237C15.8195 7.12665 15.829 7.13109 15.8384 7.13571C15.9777 7.1855 16.079 7.28509 16.1423 7.43447C16.154 7.4576 16.1649 7.48252 16.1748 7.50924C16.2039 7.58729 16.2251 7.68062 16.2386 7.78925C16.2433 7.82702 16.2471 7.86663 16.2499 7.90809C16.2517 7.93512 16.2532 7.96293 16.2542 7.99152C16.2555 8.02859 16.2562 8.06698 16.2562 8.10669V18.8621C16.2562 19.0692 16.2394 19.246 16.2057 19.3925C16.1888 19.4661 16.1677 19.5321 16.1423 19.5904C16.0684 19.7477 15.9527 19.8579 15.7951 19.9211C15.7906 19.923 15.786 19.9247 15.7814 19.9265C15.6295 19.9763 15.4396 20.0012 15.2117 20.0012H14.1292V20.1879H18.706V20.0012H17.3007C17.0981 20.0012 16.9335 19.9763 16.8069 19.9265C16.8034 19.9247 16.7999 19.923 16.7964 19.9211ZM29.7367 19.9078C29.7273 19.9124 29.7178 19.9169 29.7081 19.9211C29.5874 19.9745 29.445 20.0012 29.2809 20.0012H28.5023V20.1879H39.593L39.726 16.6774H39.536L39.4791 17.2563C39.4637 17.4634 39.4409 17.6575 39.4105 17.8384C39.3405 18.2555 39.2304 18.603 39.0803 18.8808C38.865 19.2792 38.5422 19.5655 38.1117 19.7397C37.9251 19.8176 37.7106 19.8781 37.4684 19.9211C37.1684 19.9745 36.8258 20.0012 36.4405 20.0012H33.6868V13.3164H38.0358V13.1296H33.6868V7.04235H35.8518C36.2301 7.04235 36.5676 7.06902 36.8645 7.12237C37.1042 7.16545 37.3174 7.22591 37.504 7.30376C37.9345 7.46559 38.2573 7.75191 38.4725 8.1627C38.6307 8.45541 38.7478 8.82205 38.824 9.26263C38.8514 9.42164 38.8736 9.59028 38.8904 9.76855L38.9473 10.3661H39.1372L39.1138 9.74821L39.0043 6.85562H28.5023V7.04235H29.2619C29.4265 7.04235 29.5721 7.06724 29.6987 7.11704C29.7035 7.11876 29.7083 7.12053 29.713 7.12237C29.8454 7.17377 29.9482 7.27157 30.0216 7.4158C30.0975 7.56518 30.1355 7.8017 30.1355 8.12536V19.0115C30.1355 19.2356 30.0975 19.4223 30.0216 19.5717C29.9583 19.7211 29.8633 19.8331 29.7367 19.9078ZM40.0204 20.4546V19.7344H40.9754C41.1746 19.7344 41.3428 19.7077 41.4836 19.6594C41.6049 19.6066 41.7245 19.5115 41.8391 19.3579L41.8408 19.3556C41.968 19.1889 42.0891 18.946 42.1976 18.6149L45.863 6.58887H48.9966L53.0053 18.6974C53.1128 18.9666 53.223 19.1811 53.3339 19.3454C53.4366 19.486 53.5479 19.5842 53.6656 19.6486C53.8042 19.7053 53.9539 19.7344 54.1171 19.7344H54.4834V20.4546H47.4459V19.7344H48.5148C48.775 19.7344 48.8613 19.6785 48.8817 19.6559C48.9288 19.6039 48.9651 19.523 48.9651 19.385C48.9651 19.3236 48.9563 19.2611 48.9376 19.1968L48.9318 19.177L48.9292 19.1566C48.9178 19.0664 48.9004 18.969 48.8766 18.864C48.8522 18.7559 48.8279 18.654 48.8036 18.5584L47.9126 15.5624H43.8928L43.0783 18.2259C43.0782 18.2264 43.078 18.227 43.0778 18.2276C43.0281 18.3988 42.9848 18.5572 42.9477 18.7028C42.9106 18.8489 42.8799 18.9816 42.8556 19.1012L42.8545 19.1067C42.8334 19.2002 42.8229 19.2929 42.8229 19.385C42.8229 19.5507 42.8608 19.625 42.89 19.6576C42.9343 19.6921 43.0375 19.7344 43.2543 19.7344H44.798V20.4546H40.0204ZM42.7035 19.8518C42.6022 19.7522 42.5516 19.5966 42.5516 19.385C42.5516 19.3112 42.5571 19.2375 42.5681 19.1638C42.5738 19.1255 42.5809 19.0872 42.5896 19.0489C42.608 18.9581 42.6299 18.8608 42.6551 18.7568C42.6554 18.7555 42.6557 18.7541 42.656 18.7528C42.6651 18.7154 42.6746 18.6772 42.6845 18.6381C42.7225 18.4887 42.7668 18.3268 42.8175 18.1526L43.6911 15.2957H48.116L49.0655 18.4887C49.0908 18.5883 49.1162 18.6941 49.1415 18.8061C49.1668 18.9181 49.1858 19.024 49.1985 19.1235C49.2238 19.2107 49.2364 19.2978 49.2364 19.385C49.2364 19.5717 49.1858 19.7211 49.0845 19.8331C49.0531 19.8678 49.0132 19.8972 48.9648 19.9211C48.857 19.9745 48.707 20.0012 48.5148 20.0012H47.7172V20.1879H54.2121V20.0012H54.1171C53.9459 20.0012 53.7838 19.9745 53.6306 19.9211C53.6026 19.9114 53.5748 19.9007 53.5474 19.8891C53.3828 19.802 53.2372 19.6713 53.1106 19.497C52.984 19.3103 52.8637 19.0738 52.7498 18.7874L48.7996 6.85562H46.0649L42.4567 18.6941C42.4215 18.8017 42.3845 18.9022 42.3457 18.9956C42.345 18.9972 42.3443 18.9988 42.3436 19.0005C42.3311 19.0305 42.3184 19.0598 42.3055 19.0883C42.2295 19.2564 42.1469 19.3989 42.0578 19.5157C41.9186 19.7024 41.7603 19.8331 41.5831 19.9078C41.5699 19.9124 41.5566 19.9169 41.5432 19.9211C41.3756 19.9745 41.1863 20.0012 40.9754 20.0012H40.2917V20.1879H44.5267V20.0012H43.2543C43.0689 20.0012 42.9209 19.9745 42.8102 19.9211C42.7696 19.9016 42.7341 19.8785 42.7035 19.8518ZM48.059 15.1089L46.7106 10.4781C46.6473 10.254 46.5714 9.9864 46.4827 9.67519C46.3941 9.36398 46.3055 9.04032 46.2169 8.70421C46.1777 8.55559 46.1385 8.40941 46.0993 8.26566C46.0706 8.16053 46.042 8.0567 46.0133 7.95417C45.9925 7.87984 45.9718 7.8062 45.951 7.73323C45.9108 7.91094 45.8667 8.08863 45.8186 8.26633C45.806 8.3127 45.7932 8.35908 45.7801 8.40545C45.7168 8.62952 45.6471 8.85982 45.5712 9.09634C45.5079 9.32041 45.4382 9.54448 45.3623 9.76855C45.299 9.99262 45.2293 10.2167 45.1534 10.4408L43.748 15.1089H48.059ZM44.1113 14.8422H47.6991L46.4492 10.5495C46.386 10.3257 46.3101 10.0582 46.2215 9.74711C46.1326 9.43498 46.0438 9.11057 45.955 8.7739C45.9157 8.90478 45.8745 9.03758 45.8313 9.17228C45.7677 9.39712 45.6979 9.62186 45.6218 9.8465C45.5582 10.0714 45.4883 10.2961 45.4122 10.5208L44.1113 14.8422ZM55.5089 20.4546V19.7344H56.3499C56.5846 19.7344 56.7473 19.705 56.8533 19.6616L56.8602 19.6587C56.9497 19.6249 57.019 19.5629 57.0691 19.4479L57.0754 19.4335C57.1366 19.313 57.1801 19.1124 57.1801 18.8061V7.3091H56.5018C55.8116 7.3091 55.2811 7.39448 54.8959 7.55042L54.8896 7.553C54.5213 7.69146 54.2574 7.92581 54.0857 8.26333C53.9053 8.61807 53.7833 9.12061 53.7339 9.7868C53.7339 9.78717 53.734 9.78643 53.7339 9.7868L53.6608 10.9129H52.9356L53.0872 6.58887H65.4238L65.434 6.88007V6.58887H72.8324V7.3091H71.8014C71.6131 7.3091 71.4906 7.33632 71.4156 7.3716C71.369 7.39857 71.3178 7.4506 71.2732 7.55574L71.2699 7.56358C71.2298 7.65035 71.1992 7.79929 71.1992 8.032V19.7344H73.0359C73.8654 19.7344 74.5021 19.6303 74.9618 19.4382L74.964 19.4373C75.4245 19.2496 75.7615 18.9448 75.9849 18.5163C76.2149 18.0754 76.3683 17.4559 76.4303 16.6418C76.4304 16.6408 76.4305 16.6399 76.4306 16.6389L76.4817 15.6824H77.21L77.039 20.4546H65.434V19.7344H66.5219C66.6184 19.7344 66.7099 19.7132 66.7994 19.6692C66.8637 19.6376 66.9268 19.5794 66.982 19.4711C67.0321 19.3724 67.0673 19.219 67.0673 18.9928V8.08801C67.0673 7.85151 67.0264 7.69909 66.9713 7.60622L66.9647 7.59519L66.9593 7.5836C66.9053 7.46856 66.84 7.4096 66.7705 7.37855C66.6691 7.33324 66.5558 7.3091 66.427 7.3091H65.4491L65.5755 10.9129H64.8556L64.7582 9.7879C64.7089 9.12116 64.5868 8.61826 64.4063 8.26333C64.2347 7.92581 63.9708 7.69138 63.6025 7.55292L63.5961 7.5505C63.2109 7.39456 62.6805 7.3091 61.9902 7.3091H61.331V18.8435C61.331 19.1353 61.3734 19.3308 61.4353 19.4524C61.4958 19.5715 61.5718 19.6382 61.6617 19.6743C61.7922 19.7125 61.9571 19.7344 62.1611 19.7344H63.0022V20.4546H55.5089ZM61.5587 19.9211C61.4008 19.8576 61.2788 19.7411 61.1926 19.5717C61.104 19.3974 61.0597 19.1547 61.0597 18.8435V7.04235H61.9902C62.3825 7.04235 62.7321 7.06902 63.0392 7.12237C63.287 7.16545 63.5071 7.22591 63.6994 7.30376C64.1299 7.46559 64.4464 7.74568 64.649 8.14403C64.7997 8.44043 64.9084 8.81608 64.975 9.27098C64.9979 9.42746 65.0158 9.59332 65.0288 9.76855L65.1047 10.6462H65.2947L65.1617 6.85562H53.3493L53.2164 10.6462H53.4063L53.4633 9.76855C53.4805 9.53547 53.5066 9.31897 53.5414 9.11907C53.6089 8.73178 53.7095 8.40677 53.8431 8.14403C54.0457 7.74568 54.3622 7.46559 54.7926 7.30376C54.9849 7.22591 55.205 7.16545 55.4529 7.12237C55.7599 7.06902 56.1096 7.04235 56.5018 7.04235H57.4514V18.8061C57.4514 19.1298 57.4071 19.3787 57.3184 19.553C57.2425 19.7273 57.1222 19.8456 56.9576 19.9078C56.9463 19.9124 56.9348 19.9169 56.923 19.9211C56.7753 19.9745 56.5843 20.0012 56.3499 20.0012H55.7802V20.1879H62.7309V20.0012H62.1611C61.9333 20.0012 61.737 19.9763 61.5724 19.9265C61.5678 19.9247 61.5633 19.923 61.5587 19.9211ZM76.6038 17.4479C76.5194 17.9206 76.3936 18.3174 76.2263 18.6381C75.9731 19.1235 75.587 19.4721 75.0679 19.6837C74.8157 19.7891 74.5212 19.8682 74.1843 19.9211C73.8446 19.9745 73.4618 20.0012 73.0359 20.0012H70.9279V8.032C70.9279 7.78303 70.9595 7.59008 71.0228 7.45314C71.0861 7.30376 71.1747 7.19795 71.2887 7.13571C71.2981 7.13109 71.3077 7.12665 71.3176 7.12237C71.4409 7.06902 71.6022 7.04235 71.8014 7.04235H72.5611V6.85562H65.7053V7.04235H66.427C66.5794 7.04235 66.7209 7.06902 66.8516 7.12237C66.862 7.12665 66.8724 7.13109 66.8828 7.13571C67.022 7.19795 67.1297 7.30999 67.2056 7.47182C67.2942 7.6212 67.3386 7.8266 67.3386 8.08801V18.9928C67.3386 19.2418 67.3006 19.441 67.2246 19.5904C67.1487 19.7397 67.0474 19.8456 66.9208 19.9078C66.9114 19.9124 66.9019 19.9169 66.8925 19.9211C66.7744 19.9745 66.6509 20.0012 66.5219 20.0012H65.7053V20.1879H76.7771L76.929 15.9492H76.7391L76.7011 16.6588C76.6796 16.9419 76.6472 17.2049 76.6038 17.4479ZM78.9969 20.4546V19.7344H79.8949C80.1507 19.7344 80.3422 19.706 80.4792 19.6594C80.5919 19.6101 80.6752 19.532 80.7347 19.415L80.7379 19.4088C80.8094 19.2769 80.858 19.0656 80.858 18.7501V15.6162L77.3067 8.13122C77.2125 7.89971 77.1138 7.7379 77.0164 7.63258L77.0078 7.62327L77.0001 7.6132C76.907 7.4911 76.814 7.41832 76.7251 7.37855L76.7159 7.37446C76.6327 7.33353 76.5298 7.3091 76.4005 7.3091H76.0723V6.58887H83.2617V7.3091H82.7625C82.2785 7.3091 81.9706 7.3658 81.8014 7.44899C81.7265 7.48581 81.6829 7.5281 81.6563 7.57171C81.6293 7.616 81.6095 7.67848 81.6095 7.77058C81.6095 7.88844 81.6292 8.02263 81.6726 8.17459C81.7325 8.3384 81.8171 8.54032 81.9274 8.78147L83.7647 12.8041C83.8777 13.0025 83.9689 13.1873 84.0365 13.3579C84.1129 13.5091 84.1831 13.6661 84.2469 13.8286C84.3217 13.9878 84.4088 14.1714 84.5083 14.3791C84.5398 14.445 84.5738 14.5151 84.6103 14.5897C84.6844 14.398 84.7642 14.2117 84.8499 14.0308L87.0125 8.86411C87.1371 8.57008 87.221 8.33875 87.2671 8.16866L87.2714 8.15288C87.3291 7.98251 87.3529 7.85062 87.3529 7.75191C87.3529 7.56148 87.2909 7.48734 87.2117 7.44577L87.1996 7.43943C87.0741 7.36538 86.8376 7.3091 86.4468 7.3091H85.3209V6.58887H89.7566V7.3091H89.2764C89.0937 7.3091 88.9343 7.34067 88.7946 7.39957L88.7791 7.40608C88.6571 7.44894 88.5309 7.53365 88.4037 7.67843C88.2865 7.82641 88.1596 8.04962 88.0265 8.35893C88.0263 8.35929 88.0266 8.35857 88.0265 8.35893L85.0089 15.5168V18.7688C85.0089 19.0894 85.0524 19.2956 85.1132 19.415C85.1781 19.5428 85.2569 19.6199 85.3447 19.6652C85.4554 19.7089 85.593 19.7344 85.7631 19.7344H86.889V20.4546H78.9969ZM85.2313 19.9078C85.0794 19.8331 84.9591 19.7086 84.8705 19.5343C84.7819 19.3601 84.7376 19.1049 84.7376 18.7688V15.4637L87.4455 9.04026L87.7761 8.25607C87.8027 8.19438 87.8292 8.13541 87.8558 8.07914C87.9685 7.84022 88.0812 7.65022 88.1939 7.50916C88.3459 7.33488 88.5105 7.21662 88.6877 7.15438C88.7151 7.14282 88.743 7.13215 88.7714 7.12237C88.9262 7.06902 89.0945 7.04235 89.2764 7.04235H89.4853V6.85562H85.5922V7.04235H86.4468C86.7263 7.04235 86.9547 7.06902 87.1317 7.12237C87.2113 7.14633 87.2805 7.17568 87.3393 7.2104C87.5293 7.30999 87.6242 7.49049 87.6242 7.75191C87.6242 7.82557 87.615 7.90643 87.5967 7.9945C87.5856 8.04809 87.571 8.10436 87.5531 8.16329C87.5529 8.16385 87.5528 8.16441 87.5526 8.16496C87.5454 8.18868 87.5376 8.21282 87.5293 8.23739C87.4786 8.42412 87.39 8.66687 87.2634 8.96563L85.0984 14.1379C85.0098 14.3247 84.9275 14.5176 84.8515 14.7168C84.8243 14.7838 84.7978 14.85 84.7722 14.9154C84.7264 15.0323 84.6832 15.1466 84.6426 15.2583C84.6217 15.2172 84.6013 15.177 84.5814 15.1375C84.5448 15.0653 84.5099 14.9957 84.4766 14.929C84.3959 14.7673 84.3246 14.6219 84.2628 14.4927C84.1615 14.2811 84.0729 14.0944 83.9969 13.9326C83.9336 13.7707 83.864 13.6151 83.788 13.4657C83.7247 13.3039 83.6361 13.1234 83.5221 12.9242L81.68 8.89094C81.5661 8.64197 81.4775 8.43035 81.4141 8.25607C81.3635 8.08179 81.3382 7.91996 81.3382 7.77058C81.3382 7.50916 81.4521 7.32243 81.68 7.2104C81.7507 7.17568 81.8341 7.14633 81.9302 7.12237C82.1443 7.06902 82.4218 7.04235 82.7625 7.04235H82.9904V6.85562H76.3436V7.04235H76.4005C76.5529 7.04235 76.689 7.06902 76.8088 7.12237C76.8184 7.12665 76.8279 7.13109 76.8373 7.13571C76.9766 7.19795 77.1032 7.30376 77.2171 7.45314C77.3438 7.59008 77.4577 7.78303 77.559 8.032L81.1293 15.5571V18.7501C81.1293 19.0862 81.0786 19.3476 80.9774 19.5343C80.8887 19.7086 80.7558 19.8331 80.5785 19.9078C80.5654 19.9124 80.552 19.9169 80.5383 19.9211C80.3672 19.9745 80.1527 20.0012 79.8949 20.0012H79.2682V20.1879H86.6177V20.0012H85.7631C85.5755 20.0012 85.4097 19.9745 85.2656 19.9211C85.254 19.9169 85.2426 19.9124 85.2313 19.9078Z" fill="#2F3E35"/>
<path d="M9.90409 6.49275C9.50478 6.37187 7.4624 5.70701 7.31184 5.64657C7.23983 5.61971 7.18746 5.48541 7.16128 5.25708C6.94525 3.5513 6.60485 1.79849 6.45429 1.60374C6.34301 1.456 5.96333 1.50301 5.85859 1.6709C5.75385 1.83879 5.26945 3.53786 4.98142 4.77354L4.79159 5.57942C1.0734 6.78823 0.870457 6.76137 2.55281 7.29191L4.03879 7.762C4.88323 8.03063 4.90287 8.03733 4.94869 8.25223C5.01415 8.56115 5.43965 10.0655 5.6033 10.784C5.95024 12.3286 6.65723 11.375 7.27911 8.50072L7.42312 7.8426C7.50167 7.82917 7.99917 7.78216 10.1463 7.30535C10.6372 7.19118 10.4932 6.66736 9.90409 6.49275ZM8.97455 6.82181C8.92218 6.86882 7.48858 7.22475 7.2071 7.22475C6.8667 7.22475 6.78814 7.39264 6.40192 8.97082C6.14662 10.0117 6.12699 10.0319 5.98298 9.42747C5.80623 8.6686 5.44619 7.78216 5.40036 7.57398C5.36109 7.38594 4.99451 7.25163 3.57401 6.90241C2.86048 6.72781 2.7492 6.66735 3.01759 6.58676C3.35144 6.48603 4.95523 5.94878 5.13852 5.94878C5.31526 5.94878 5.46583 5.81446 5.5182 5.61299L6.0288 3.57144C6.12044 3.21552 6.12045 3.21551 6.37574 4.60565C6.67032 6.17039 6.63758 6.10322 7.1089 6.20396C7.69805 6.33156 9.03346 6.76809 8.97455 6.82181Z" fill="#E76B39"/>
<path d="M8.97455 6.82181C8.92218 6.86882 7.48858 7.22475 7.2071 7.22475C6.8667 7.22475 6.78814 7.39264 6.40192 8.97082C6.14662 10.0117 6.12699 10.0319 5.98298 9.42747C5.80623 8.6686 5.44619 7.78216 5.40036 7.57398C5.36109 7.38594 4.99451 7.25163 3.57401 6.90241C2.86048 6.72781 2.7492 6.66735 3.01759 6.58676C3.35144 6.48603 4.95523 5.94878 5.13852 5.94878C5.31526 5.94878 5.46583 5.81446 5.5182 5.61299L6.0288 3.57144C6.12044 3.21552 6.12045 3.21551 6.37574 4.60565C6.67032 6.17039 6.63758 6.10322 7.1089 6.20396C7.69805 6.33156 9.03346 6.76809 8.97455 6.82181Z" fill="#E76B39"/>
</svg>
