<svg width="53" height="38" viewBox="0 0 53 38" fill="none" xmlns="http://www.w3.org/2000/svg">
<path d="M1.5 29V36.5M26.5 21.5V6.5C26.5 5.17392 27.0268 3.90215 27.9645 2.96447C28.9021 2.02678 30.1739 1.5 31.5 1.5H41.5C42.8261 1.5 44.0979 2.02678 45.0355 2.96447C45.9732 3.90215 46.5 5.17392 46.5 6.5V11.5M26.5 21.5V6.5C26.5 5.17392 25.9732 3.90215 25.0355 2.96447C24.0979 2.02678 22.8261 1.5 21.5 1.5H11.5C10.1739 1.5 8.90215 2.02678 7.96447 2.96447C7.02678 3.90215 6.5 5.17392 6.5 6.5V11.5" stroke="white" stroke-width="3" stroke-linecap="round" stroke-linejoin="round"/>
<path d="M51.5 29V36.5M46.5 11.5C45.1739 11.5 43.9021 12.0268 42.9645 12.9645C42.0268 13.9021 41.5 15.1739 41.5 16.5V21.5H11.5V16.5C11.5 15.1739 10.9732 13.9021 10.0355 12.9645C9.09785 12.0268 7.82608 11.5 6.5 11.5C5.17392 11.5 3.90215 12.0268 2.96447 12.9645C2.02678 13.9021 1.5 15.1739 1.5 16.5V31.5H51.5V16.5C51.5 15.1739 50.9732 13.9021 50.0355 12.9645C49.0979 12.0268 47.8261 11.5 46.5 11.5Z" stroke="white" stroke-width="3" stroke-linecap="round" stroke-linejoin="round"/>
</svg>
