<svg width="18" height="15" viewBox="0 0 18 15" fill="none" xmlns="http://www.w3.org/2000/svg">
<path d="M17.125 3.31348V12.0635C17.125 12.5608 16.9275 13.0377 16.5758 13.3893C16.2242 13.7409 15.7473 13.9385 15.25 13.9385H2.75C2.25272 13.9385 1.77581 13.7409 1.42417 13.3893C1.07254 13.0377 0.875 12.5608 0.875 12.0635V3.31348M17.125 3.31348C17.125 2.8162 16.9275 2.33928 16.5758 1.98765C16.2242 1.63602 15.7473 1.43848 15.25 1.43848H2.75C2.25272 1.43848 1.77581 1.63602 1.42417 1.98765C1.07254 2.33928 0.875 2.8162 0.875 3.31348M17.125 3.31348V3.51598C17.125 3.8361 17.0431 4.1509 16.887 4.43039C16.7309 4.70988 16.5059 4.94476 16.2333 5.11264L9.98333 8.95848C9.68767 9.14059 9.34725 9.23702 9 9.23702C8.65275 9.23702 8.31233 9.14059 8.01667 8.95848L1.76667 5.11348C1.4941 4.94559 1.26906 4.71072 1.11297 4.43122C0.95689 4.15173 0.874965 3.83693 0.875 3.51681V3.31348" stroke="#81A08F" stroke-width="1.5" stroke-linecap="round" stroke-linejoin="round"/>
</svg>
