<svg width="41" height="40" viewBox="0 0 41 40" fill="none" xmlns="http://www.w3.org/2000/svg">
<path d="M29.637 39.9999C30.1681 40.003 30.6945 39.9002 31.1855 39.6977C31.6765 39.4951 32.1222 39.1968 32.4967 38.8201L37.9161 33.4006C38.2885 33.026 38.4976 32.5191 38.4976 31.9908C38.4976 31.4625 38.2885 30.9556 37.9161 30.5809L29.9169 22.5818C29.5422 22.2093 29.0354 22.0003 28.5071 22.0003C27.9788 22.0003 27.4719 22.2093 27.0972 22.5818L23.8976 25.7614C21.6823 25.1708 19.6307 24.0834 17.8982 22.5818C16.4006 20.8466 15.3138 18.7959 14.7186 16.5824L17.8982 13.3828C18.2707 13.0081 18.4797 12.5012 18.4797 11.9729C18.4797 11.4446 18.2707 10.9378 17.8982 10.5631L9.89907 2.56392C9.52438 2.19145 9.01753 1.98239 8.48922 1.98239C7.9609 1.98239 7.45405 2.19145 7.07937 2.56392L1.67994 8.00334C1.30325 8.37778 1.0049 8.8235 0.802327 9.31449C0.599751 9.80548 0.496999 10.3319 0.500067 10.863C0.681493 18.5468 3.75187 25.88 9.09915 31.4008C14.62 36.7481 21.9532 39.8185 29.637 39.9999ZM8.49922 6.82346L13.6787 12.0029L11.0989 14.5826C10.8546 14.8115 10.6716 15.0981 10.5668 15.416C10.462 15.734 10.4387 16.0731 10.499 16.4024C11.2465 19.7428 12.829 22.8391 15.0985 25.4015C17.659 27.6739 20.756 29.2569 24.0976 30.001C24.4219 30.0688 24.758 30.055 25.0756 29.9607C25.3932 29.8665 25.6825 29.6948 25.9174 29.4611L28.4971 26.8213L33.6765 32.0008L29.677 36.0004C23.0451 35.8296 16.7173 33.1829 11.9388 28.5812C7.32516 23.8007 4.67084 17.4645 4.49964 10.823L8.49922 6.82346ZM36.4962 18.0023H40.4958C40.5477 15.6245 40.1176 13.2609 39.2314 11.0538C38.3453 8.84676 37.0215 6.84195 35.3398 5.16023C33.658 3.47851 31.6532 2.15469 29.4462 1.26856C27.2391 0.382429 24.8755 -0.0476683 22.4977 0.00418882V4.00376C24.3533 3.93957 26.2023 4.25776 27.9297 4.93853C29.6572 5.61931 31.2261 6.64812 32.539 7.96102C33.8519 9.27392 34.8807 10.8428 35.5615 12.5703C36.2422 14.2977 36.5604 16.1467 36.4962 18.0023Z" fill="white"/>
<path d="M21.75 12.75C25.95 12.75 27.75 14.55 27.75 18.75H31.75C31.75 12.31 28.19 8.75 21.75 8.75V12.75Z" fill="white"/>
</svg>
