<svg width="49" height="36" viewBox="0 0 49 36" fill="none" xmlns="http://www.w3.org/2000/svg">
<path d="M47.127 14.133L34.0102 9.2703L28.5273 2.16955C28.0506 1.56832 27.45 1.08413 26.7693 0.752103C26.0885 0.420081 25.3446 0.248567 24.5916 0.250009H11.027C10.1974 0.249722 9.38028 0.458769 8.64696 0.858923C7.91365 1.25908 7.28637 1.83819 6.81982 2.54576L2.21911 9.51527C1.26089 10.9658 0.748905 12.6805 0.750002 14.4357V28.247C0.750002 28.7111 0.928732 29.1562 1.24687 29.4843C1.56502 29.8125 1.99651 29.9968 2.44643 29.9968H6.08018C6.44921 31.4986 7.29318 32.8306 8.47855 33.782C9.66392 34.7334 11.123 35.25 12.625 35.25C14.127 35.25 15.5861 34.7334 16.7715 33.782C17.9568 32.8306 18.8008 31.4986 19.1698 29.9968H29.8302C30.1992 31.4986 31.0432 32.8306 32.2285 33.782C33.4139 34.7334 34.873 35.25 36.375 35.25C37.877 35.25 39.3361 34.7334 40.5215 33.782C41.7068 32.8306 42.5508 31.4986 42.9198 29.9968H46.5536C47.0035 29.9968 47.435 29.8125 47.7531 29.4843C48.0713 29.1562 48.25 28.7111 48.25 28.247V15.7796C48.2499 15.4193 48.1421 15.0677 47.9411 14.773C47.74 14.4783 47.4557 14.2548 47.127 14.133ZM12.625 31.7467C11.954 31.7467 11.298 31.5414 10.74 31.1569C10.1821 30.7723 9.74721 30.2257 9.49041 29.5863C9.23361 28.9468 9.16642 28.2431 9.29734 27.5643C9.42825 26.8854 9.75139 26.2618 10.2259 25.7724C10.7004 25.283 11.3049 24.9497 11.9631 24.8146C12.6212 24.6796 13.3034 24.7489 13.9234 25.0138C14.5434 25.2787 15.0732 25.7272 15.4461 26.3027C15.8189 26.8782 16.0179 27.5549 16.0179 28.247C16.0165 29.1748 15.6586 30.0641 15.0226 30.7201C14.3866 31.3761 13.5244 31.7453 12.625 31.7467ZM36.375 31.7467C35.704 31.7467 35.048 31.5414 34.49 31.1569C33.9321 30.7723 33.4972 30.2257 33.2404 29.5863C32.9836 28.9468 32.9164 28.2431 33.0473 27.5643C33.1782 26.8854 33.5014 26.2618 33.9759 25.7724C34.4504 25.283 35.0549 24.9497 35.7131 24.8146C36.3712 24.6796 37.0534 24.7489 37.6734 25.0138C38.2934 25.2787 38.8232 25.7272 39.1961 26.3027C39.5689 26.8782 39.7679 27.5549 39.7679 28.247C39.767 29.1749 39.4092 30.0645 38.7731 30.7206C38.137 31.3767 37.2746 31.7457 36.375 31.7467ZM44.8571 26.4972H42.9198C42.5508 24.9955 41.7068 23.6635 40.5215 22.7121C39.3361 21.7606 37.877 21.244 36.375 21.244C34.873 21.244 33.4139 21.7606 32.2285 22.7121C31.0432 23.6635 30.1992 24.9955 29.8302 26.4972H19.1698C18.8008 24.9955 17.9568 23.6635 16.7715 22.7121C15.5861 21.7606 14.127 21.244 12.625 21.244C11.123 21.244 9.66392 21.7606 8.47855 22.7121C7.29318 23.6635 6.44921 24.9955 6.08018 26.4972H4.14286V14.4357C4.14267 13.3822 4.45007 12.3529 5.025 11.4821L9.62402 4.51605C9.77953 4.27997 9.98867 4.08671 10.2332 3.95312C10.4777 3.81953 10.7502 3.74968 11.027 3.74964H24.5916C24.8384 3.74863 25.0825 3.8036 25.3064 3.91064C25.5304 4.01768 25.7288 4.17418 25.8877 4.36907L31.6555 11.839C31.8517 12.093 32.1125 12.2857 32.4088 12.3955L44.8571 17.0097V26.4972Z" fill="white"/>
</svg>
