<svg width="20" height="21" viewBox="0 0 20 21" fill="none" xmlns="http://www.w3.org/2000/svg">
<path d="M1.875 6.31348C1.875 13.2168 7.47167 18.8135 14.375 18.8135H16.25C16.7473 18.8135 17.2242 18.6159 17.5758 18.2643C17.9275 17.9127 18.125 17.4358 18.125 16.9385V15.7951C18.125 15.3651 17.8325 14.9901 17.415 14.886L13.7292 13.9643C13.3625 13.8726 12.9775 14.0101 12.7517 14.3118L11.9433 15.3893C11.7083 15.7026 11.3025 15.841 10.935 15.706C9.57073 15.2044 8.33179 14.4123 7.30398 13.3845C6.27618 12.3567 5.48406 11.1177 4.9825 9.75348C4.8475 9.38598 4.98583 8.98014 5.29917 8.74514L6.37667 7.93681C6.67917 7.71098 6.81583 7.32514 6.72417 6.95931L5.8025 3.27348C5.75178 3.07072 5.63477 2.89073 5.47004 2.76209C5.30532 2.63345 5.10234 2.56355 4.89333 2.56348H3.75C3.25272 2.56348 2.77581 2.76102 2.42417 3.11265C2.07254 3.46428 1.875 3.9412 1.875 4.43848V6.31348Z" stroke="#81A08F" stroke-width="1.5" stroke-linecap="round" stroke-linejoin="round"/>
</svg>
