<svg width="41" height="50" viewBox="0 0 41 50" fill="none" xmlns="http://www.w3.org/2000/svg">
<path d="M7.77274 23.2127H33.2273V19.6415H7.77274V23.2127ZM7.77274 26.7838V29.4622C7.77273 30.7518 8.03138 32.0289 8.53393 33.2204C9.03647 34.4119 9.77306 35.4945 10.7016 36.4065C11.6302 37.3184 12.7326 38.0418 13.9459 38.5354C15.1591 39.0289 16.4595 39.2829 17.7727 39.2829H23.2273C24.5405 39.2829 25.8409 39.0289 27.0541 38.5354C28.2674 38.0418 29.3698 37.3184 30.2984 36.4065C31.2269 35.4945 31.9635 34.4119 32.4661 33.2204C32.9686 32.0289 33.2273 30.7518 33.2273 29.4622V26.7838H7.77274ZM5.95452 16.0703H35.0455C35.2842 16.0703 35.5207 16.1165 35.7413 16.2062C35.9619 16.2959 36.1623 16.4275 36.3311 16.5933C36.5 16.7591 36.6339 16.9559 36.7253 17.1726C36.8166 17.3892 36.8637 17.6214 36.8636 17.8559V29.4622C36.8636 33.0139 35.427 36.4202 32.8696 38.9317C30.3123 41.4431 26.8439 42.8541 23.2273 42.8541H17.7727C14.1561 42.8541 10.6877 41.4431 8.13036 38.9317C5.57304 36.4202 4.13636 33.0139 4.13636 29.4622V17.8559C4.13635 17.6214 4.18337 17.3892 4.27474 17.1726C4.36611 16.9559 4.50003 16.7591 4.66887 16.5933C4.8377 16.4275 5.03813 16.2959 5.25873 16.2062C5.47932 16.1165 5.71575 16.0703 5.95452 16.0703ZM20.5 0C20.7388 -1.00634e-10 20.9752 0.0461869 21.1958 0.135923C21.4164 0.22566 21.6168 0.357188 21.7857 0.522999C21.9545 0.68881 22.0884 0.885656 22.1798 1.1023C22.2712 1.31894 22.3182 1.55113 22.3182 1.78562V10.7135C22.3182 11.1871 22.1266 11.6412 21.7856 11.9761C21.4447 12.311 20.9822 12.4991 20.5 12.4991C20.0178 12.4991 19.5553 12.311 19.2144 11.9761C18.8734 11.6412 18.6818 11.1871 18.6818 10.7135V1.78562C18.6818 1.55113 18.7289 1.31894 18.8202 1.1023C18.9116 0.885656 19.0455 0.68881 19.2143 0.522999C19.3832 0.357188 19.5836 0.22566 19.8042 0.135923C20.0248 0.0461869 20.2612 -1.00633e-10 20.5 0ZM13.2273 3.57119C13.7095 3.57119 14.172 3.75931 14.5129 4.09417C14.8539 4.42903 15.0455 4.8832 15.0455 5.35676V10.7135C15.0455 11.1871 14.8539 11.6413 14.5129 11.9761C14.1719 12.311 13.7095 12.4991 13.2273 12.4991C12.745 12.4991 12.2826 12.311 11.9416 11.9761C11.6006 11.6413 11.4091 11.1871 11.4091 10.7135V5.35676C11.4091 5.12227 11.4561 4.89008 11.5475 4.67344C11.6388 4.4568 11.7728 4.25996 11.9416 4.09415C12.1105 3.92835 12.3109 3.79682 12.5315 3.70709C12.7521 3.61736 12.9885 3.57118 13.2273 3.57119ZM27.7727 3.57119C28.0115 3.57118 28.2479 3.61736 28.4685 3.70709C28.6891 3.79682 28.8895 3.92835 29.0584 4.09415C29.2272 4.25996 29.3612 4.4568 29.4525 4.67344C29.5439 4.89008 29.5909 5.12227 29.5909 5.35676V10.7135C29.5909 11.1871 29.3994 11.6413 29.0584 11.9761C28.7174 12.311 28.255 12.4991 27.7727 12.4991C27.2905 12.4991 26.8281 12.311 26.4871 11.9761C26.1461 11.6413 25.9545 11.1871 25.9545 10.7135V5.35676C25.9545 4.8832 26.1461 4.42903 26.4871 4.09417C26.828 3.75931 27.2905 3.57119 27.7727 3.57119ZM2.31819 46.4288H38.6818C39.164 46.4288 39.6265 46.6169 39.9675 46.9518C40.3084 47.2867 40.5 47.7408 40.5 48.2144C40.5 48.688 40.3084 49.1421 39.9675 49.477C39.6265 49.8119 39.164 50 38.6818 50H2.31819C1.83598 50 1.37351 49.8119 1.03254 49.477C0.69156 49.1421 0.5 48.688 0.5 48.2144C0.5 47.7408 0.69156 47.2867 1.03254 46.9518C1.37351 46.6169 1.83598 46.4288 2.31819 46.4288Z" fill="white"/>
</svg>
