<svg width="41" height="39" viewBox="0 0 41 39" fill="none" xmlns="http://www.w3.org/2000/svg">
<path d="M38.074 13.1514C37.824 13.2052 34.468 13.984 30.168 16.685C29.522 13.5637 27.61 7.71954 21.952 1.77578L20.5 0.25L19.048 1.77777C13.37 7.74345 11.466 13.6036 10.826 16.7447C6.51 13.9979 3.18 13.2092 2.936 13.1534L0.5 12.6116V15.0975C0.5 29.6183 8.35 39 20.5 39C32.462 39 40.5 29.3952 40.5 15.0975V12.6235L38.074 13.1514ZM14.498 19.1569C14.502 19.0912 14.802 12.9821 20.5 6.14596C26.128 12.9183 26.498 19.0812 26.5 19.0812V19.3302C24.2571 21.1865 22.2371 23.2946 20.48 25.6126C18.718 23.3355 16.7121 21.2563 14.498 19.4119V19.1569ZM20.5 35.0162C9.868 35.0162 5.402 26.6583 4.626 17.9578C7.936 19.388 13.858 22.7901 18.84 30.1541L20.522 32.6419L22.172 30.1322C27.024 22.7463 33.022 19.3541 36.364 17.9379C35.568 26.3595 31.108 35.0162 20.5 35.0162Z" fill="white"/>
</svg>
