<svg width="16" height="13" viewBox="0 0 16 13" fill="none" xmlns="http://www.w3.org/2000/svg">
<path d="M15.7627 1.84276C15.1795 2.10072 14.5611 2.27013 13.9279 2.3454C14.5953 1.94621 15.0949 1.31798 15.3334 0.577757C14.707 0.950534 14.0203 1.21178 13.3045 1.3531C12.8237 0.838685 12.1865 0.49752 11.4918 0.382648C10.7971 0.267776 10.0839 0.385632 9.46314 0.717895C8.84235 1.05016 8.34872 1.57821 8.059 2.21996C7.76927 2.86171 7.69969 3.5812 7.86106 4.26658C6.5908 4.20291 5.34812 3.87281 4.21371 3.29771C3.0793 2.72261 2.07852 1.91536 1.27634 0.928382C0.992396 1.41609 0.843182 1.9705 0.84398 2.53484C0.84398 3.64248 1.40773 4.62102 2.26481 5.19394C1.7576 5.17797 1.26155 5.04099 0.818008 4.79442V4.83414C0.818161 5.57183 1.07343 6.28677 1.54053 6.85773C2.00763 7.42869 2.65782 7.82055 3.38085 7.96685C2.91 8.09445 2.4163 8.11326 1.9371 8.02185C2.14096 8.65682 2.53829 9.21214 3.07346 9.61006C3.60863 10.008 4.25484 10.2286 4.92162 10.2409C4.25893 10.7614 3.50016 11.1461 2.68868 11.3732C1.8772 11.6002 1.02894 11.665 0.192383 11.564C1.65271 12.5032 3.35266 13.0017 5.08891 13.0001C10.9655 13.0001 14.1792 8.13185 14.1792 3.90984C14.1792 3.77234 14.1754 3.63331 14.1693 3.49734C14.7948 3.04525 15.3346 2.4852 15.7635 1.84352L15.7627 1.84276Z" fill="white"/>
</svg>
