<svg width="45" height="34" viewBox="0 0 45 34" fill="none" xmlns="http://www.w3.org/2000/svg">
<path d="M33.0897 22.3428C30.2665 19.9348 26.5792 18.4773 22.5402 18.4773C18.5013 18.4773 14.814 19.9348 11.9857 22.3477C11.9076 22.4167 11.8598 22.5127 11.8523 22.6156C11.8448 22.7184 11.8782 22.82 11.9455 22.8992L13.754 25.0117C13.8997 25.1792 14.1559 25.1989 14.3267 25.0561C16.517 23.1652 19.3905 22.0227 22.5402 22.0227C25.69 22.0227 28.5635 23.1652 30.7538 25.0511C30.9246 25.1939 31.1808 25.1742 31.3265 25.0068L33.135 22.8943C33.2756 22.7318 33.2555 22.4856 33.0897 22.3428ZM38.9874 15.4439C34.5315 11.8049 28.7996 9.61364 22.5402 9.61364C16.2809 9.61364 10.549 11.8049 6.08804 15.4439C6.00643 15.5114 5.95535 15.6078 5.94594 15.712C5.93653 15.8163 5.96955 15.9199 6.0378 16.0004L7.84629 18.1129C7.98695 18.2803 8.24315 18.3 8.40893 18.1621C12.2419 15.0402 17.17 13.1591 22.5402 13.1591C27.9104 13.1591 32.8386 15.0402 36.6665 18.1621C36.8373 18.3 37.0885 18.2803 37.2292 18.1129L39.0377 16.0004C39.1783 15.833 39.1582 15.5818 38.9874 15.4439ZM44.8499 8.59924C38.7513 3.6947 30.9447 0.75 22.4398 0.75C13.9901 0.75 6.23372 3.6553 0.150178 8.50076C0.108382 8.53367 0.0737272 8.57445 0.0482549 8.6207C0.0227825 8.66694 0.00700733 8.71771 0.00185796 8.77003C-0.00329141 8.82234 0.00228926 8.87513 0.0182714 8.92529C0.0342536 8.97546 0.0603139 9.02198 0.0949182 9.06212L1.9034 11.1746C2.04406 11.3371 2.29524 11.3617 2.46102 11.2288C7.92164 6.89053 14.8692 4.29545 22.4398 4.29545C30.0656 4.29545 37.0584 6.92992 42.5341 11.3223C42.7049 11.4602 42.956 11.4356 43.0967 11.2682L44.9052 9.15568C45.0509 8.98826 45.0257 8.73712 44.8499 8.59924ZM19.2749 30.0985C19.2749 30.9343 19.6136 31.7359 20.2166 32.3269C20.8195 32.918 21.6373 33.25 22.49 33.25C23.3427 33.25 24.1605 32.918 24.7634 32.3269C25.3664 31.7359 25.7051 30.9343 25.7051 30.0985C25.7051 29.2627 25.3664 28.4611 24.7634 27.87C24.1605 27.279 23.3427 26.947 22.49 26.947C21.6373 26.947 20.8195 27.279 20.2166 27.87C19.6136 28.4611 19.2749 29.2627 19.2749 30.0985Z" fill="white"/>
</svg>
